<?xml version="1.0" encoding="UTF-8"?>
<!DOCTYPE svg PUBLIC "-//W3C//DTD SVG 1.1//EN" "http://www.w3.org/Graphics/SVG/1.1/DTD/svg11.dtd">
<!-- Creator: CorelDRAW -->
<svg xmlns="http://www.w3.org/2000/svg" xml:space="preserve" width="105.222mm" height="26.7171mm" version="1.1" style="shape-rendering:geometricPrecision; text-rendering:geometricPrecision; image-rendering:optimizeQuality; fill-rule:evenodd; clip-rule:evenodd"
viewBox="0 0 1616.49 410.45"
 xmlns:xlink="http://www.w3.org/1999/xlink"
 xmlns:xodm="http://www.corel.com/coreldraw/odm/2003">
 <defs>
  <style type="text/css">
   <![CDATA[
    .str1 {stroke:#944F2E;stroke-width:8.13;stroke-miterlimit:22.9256}
    .str0 {stroke:#944F2E;stroke-width:3.07;stroke-miterlimit:22.9256}
    .fil0 {fill:#7D4C38}
    .fil1 {fill:#DB8E6B}
    .fil2 {fill:#FFDA07}
   ]]>
  </style>
 </defs>
 <g id="Capa_x0020_1">
  <metadata id="CorelCorpID_0Corel-Layer"/>
  <g id="_1810808049312">
   <path class="fil0 str0" d="M1474.14 400.9c-8.78,5.21 -18.9,8.01 -29.34,8.01l-1273.1 0c-10.45,0 -20.56,-2.8 -29.34,-8.01 -3.66,0.64 -7.39,0.96 -11.12,0.96 -28.75,0 -52.92,-18.88 -59.87,-44.46l-27.19 0 0.91 -15.93c0.09,-1.51 0.13,-3.02 0.13,-4.54 0,-17.79 -5.95,-34.9 -17.12,-49.07 -17.86,-22.67 -26.56,-47.54 -26.56,-75.99l0 -13.31c0,-28.45 8.69,-53.32 26.56,-75.99 11.17,-14.17 17.12,-31.29 17.12,-49.07 0,-1.51 -0.05,-3.02 -0.13,-4.54l-0.91 -15.93 27.19 0c6.95,-25.58 31.12,-44.46 59.87,-44.46 3.74,0 7.46,0.32 11.12,0.96 8.78,-5.21 18.9,-8.01 29.34,-8.01l1273.1 0c10.45,0 20.56,2.8 29.34,8.01 3.66,-0.64 7.39,-0.96 11.12,-0.96 28.75,0 52.92,18.88 59.87,44.46l27.19 0 -0.91 15.93c-0.09,1.51 -0.13,3.02 -0.13,4.54 0,17.79 5.95,34.9 17.12,49.07 17.86,22.66 26.56,47.54 26.56,75.99l0 13.31c0,28.45 -8.69,53.32 -26.56,75.99 -11.17,14.17 -17.12,31.29 -17.12,49.07 0,1.51 0.05,3.02 0.13,4.54l0.91 15.93 -27.19 0c-6.95,25.58 -31.12,44.46 -59.87,44.46 -3.74,0 -7.46,-0.32 -11.12,-0.96z"/>
   <path class="fil1" d="M583.64 16.64l449.2 0 411.95 0c9.92,0 19.03,3.48 26.09,9.24 4.52,-1.42 9.35,-2.2 14.37,-2.2 25.51,0 46.19,19.91 46.19,44.46l24.3 0c-0.1,1.78 -0.16,3.56 -0.16,5.36 0,21.86 7.56,42.03 20.31,58.2 15.81,20.06 23.37,41.69 23.37,66.86l0 13.31c0,25.17 -7.56,46.8 -23.37,66.86 -12.74,16.17 -20.31,36.33 -20.31,58.2 0,1.8 0.06,3.59 0.16,5.36l-24.3 0c0,24.56 -20.68,44.46 -46.19,44.46 -5.02,0 -9.85,-0.77 -14.37,-2.2 -7.06,5.76 -16.17,9.24 -26.09,9.24l-411.95 0 -449.2 0 -411.95 0c-9.92,0 -19.03,-3.48 -26.09,-9.24 -4.52,1.42 -9.35,2.2 -14.37,2.2 -25.51,0 -46.19,-19.91 -46.19,-44.46l-24.3 0c0.1,-1.78 0.16,-3.56 0.16,-5.36 0,-21.87 -7.56,-42.03 -20.31,-58.2 -15.81,-20.06 -23.37,-41.69 -23.37,-66.86l0 -13.31c0,-25.17 7.56,-46.8 23.37,-66.86 12.74,-16.17 20.31,-36.34 20.31,-58.2 0,-1.8 -0.06,-3.59 -0.16,-5.36l24.3 0c0,-24.56 20.68,-44.46 46.19,-44.46 5.02,0 9.85,0.77 14.37,2.2 7.06,-5.76 16.17,-9.24 26.09,-9.24l411.95 0z"/>
  </g>
  <g id="_1810808051088">
   <path class="fil2 str1" d="M512.22 101.91l16.84 52.16c2.25,6.97 8.48,11.49 15.8,11.48l54.81 -0.1c7.31,-0.01 13.53,4.5 15.79,11.45 2.26,6.95 -0.12,14.26 -6.05,18.55l-44.4 32.13c-5.93,4.29 -8.31,11.61 -6.04,18.58l17.04 52.1c2.27,6.95 -0.09,14.26 -6.01,18.56 -5.91,4.3 -13.6,4.29 -19.5,-0.02l-44.28 -32.3c-5.92,-4.32 -13.61,-4.32 -19.53,0l-44.28 32.3c-5.91,4.31 -13.59,4.32 -19.51,0.02 -5.91,-4.3 -8.28,-11.6 -6.01,-18.56l17.04 -52.09c2.28,-6.96 -0.1,-14.28 -6.04,-18.58l-44.4 -32.13c-5.93,-4.29 -8.3,-11.59 -6.05,-18.54 2.26,-6.95 8.48,-11.47 15.79,-11.45l54.81 0.1c7.32,0.01 13.55,-4.51 15.8,-11.48l16.84 -52.16c2.25,-6.96 8.46,-11.48 15.77,-11.48 7.31,0 13.52,4.52 15.77,11.48z"/>
   <path class="fil2 str1" d="M824.02 101.91l16.84 52.16c2.25,6.97 8.48,11.49 15.8,11.48l54.81 -0.1c7.31,-0.01 13.53,4.5 15.79,11.45 2.26,6.95 -0.12,14.26 -6.05,18.55l-44.4 32.13c-5.93,4.29 -8.31,11.61 -6.03,18.58l17.04 52.1c2.27,6.95 -0.09,14.26 -6.01,18.56 -5.91,4.3 -13.6,4.29 -19.5,-0.02l-44.28 -32.3c-5.92,-4.32 -13.61,-4.32 -19.53,0l-44.28 32.3c-5.91,4.31 -13.59,4.32 -19.51,0.02 -5.91,-4.3 -8.28,-11.6 -6.01,-18.56l17.04 -52.09c2.28,-6.96 -0.1,-14.28 -6.03,-18.58l-44.41 -32.13c-5.92,-4.29 -8.3,-11.59 -6.04,-18.54 2.26,-6.95 8.48,-11.47 15.79,-11.45l54.81 0.1c7.32,0.01 13.55,-4.51 15.8,-11.48l16.84 -52.16c2.25,-6.96 8.46,-11.48 15.77,-11.48 7.31,0 13.52,4.52 15.77,11.48z"/>
   <path class="fil2 str1" d="M1135.81 101.91l16.84 52.16c2.25,6.97 8.48,11.49 15.8,11.48l54.81 -0.1c7.31,-0.01 13.53,4.5 15.79,11.45 2.26,6.95 -0.12,14.26 -6.05,18.55l-44.4 32.13c-5.93,4.29 -8.31,11.61 -6.04,18.58l17.04 52.1c2.27,6.95 -0.09,14.26 -6.01,18.56 -5.91,4.3 -13.6,4.29 -19.5,-0.02l-44.28 -32.3c-5.92,-4.32 -13.61,-4.32 -19.53,0l-44.28 32.3c-5.91,4.31 -13.59,4.32 -19.51,0.02 -5.92,-4.3 -8.28,-11.6 -6.01,-18.56l17.04 -52.09c2.28,-6.96 -0.1,-14.28 -6.04,-18.58l-44.4 -32.13c-5.93,-4.29 -8.31,-11.59 -6.05,-18.54 2.26,-6.95 8.48,-11.47 15.79,-11.45l54.81 0.1c7.32,0.01 13.55,-4.51 15.8,-11.48l16.84 -52.16c2.25,-6.96 8.46,-11.48 15.77,-11.48 7.31,0 13.52,4.52 15.77,11.48z"/>
  </g>
 </g>
</svg>
