<?xml version="1.0" encoding="UTF-8"?>
<!DOCTYPE svg PUBLIC "-//W3C//DTD SVG 1.1//EN" "http://www.w3.org/Graphics/SVG/1.1/DTD/svg11.dtd">
<!-- Creator: CorelDRAW -->
<svg xmlns="http://www.w3.org/2000/svg" xml:space="preserve" width="228.47mm" height="285.879mm" version="1.1" style="shape-rendering:geometricPrecision; text-rendering:geometricPrecision; image-rendering:optimizeQuality; fill-rule:evenodd; clip-rule:evenodd"
viewBox="0 0 37003 46300.85"
 xmlns:xlink="http://www.w3.org/1999/xlink"
 xmlns:xodm="http://www.corel.com/coreldraw/odm/2003">
 <defs>
  <style type="text/css">
   <![CDATA[
    .fil0 {fill:#F7F0E6}
    .fil3 {fill:#ACD2DE}
    .fil1 {fill:#ADD2DC}
    .fil2 {fill:#A0CCD9}
   ]]>
  </style>
 </defs>
 <g id="Capa_x0020_1">
  <metadata id="CorelCorpID_0Corel-Layer"/>
  <g id="_1810796373168">
   <path class="fil0" d="M27783.98 42815.76c583.04,-621.42 1584.31,-821.43 2998.78,-571.72 1262.48,-202.24 2219.01,507.6 2868.01,2138.71 842.53,-121.62 1498.24,-5.85 1956.13,355.06 942.28,79.38 1051.93,388.54 308.55,933.31 -102.52,88.33 -220.46,154.48 -347.76,218.97 -1458.01,-112.64 -2760.1,-342.53 -3893.54,-706.82 -1121.96,391.25 -2572.84,347.66 -4352.65,-130.77 -3084.13,-312.74 -4363.05,-673.85 -3855.5,-1086.6 1387.54,-691.96 2241.62,-714.83 2579.37,-56.43 563.73,-74.42 1134.06,-22.08 1671.85,159.84 -193.93,-159.82 -298.05,-390.78 -292.58,-640.7 14.9,-248.54 151.59,-475.59 359.34,-612.86l0 0z"/>
   <path class="fil1" d="M27321.5 45052.51c1779.81,478.43 3230.69,522.01 4352.65,130.77 1133.44,364.3 2435.53,594.18 3893.54,706.82 -738.39,352.55 -1911.53,377.17 -3530.43,81.63 -1344.04,390.68 -2617.53,436.48 -3798.36,121.58 -849.17,159.35 -1888.39,-82.19 -3098.95,-721.03 -1181.45,-256.63 -1979.29,-388.06 -2412.44,-396.72 -1401.29,-160.42 -2168.85,-354 -2321.48,-583.77 26.48,-642.45 1047.57,-790.61 3059.97,-425.89 -507.55,412.75 771.37,773.86 3855.5,1086.6l0 0z"/>
   <path class="fil2" d="M18262.17 40777.44c128.39,476.68 -484.41,774.17 -1838.28,892.46 -2040.09,-99.27 -3495.19,-336.97 -4384.65,-716.01 -1025.9,-152.23 -1797.44,-268.98 -2331.23,-363.21 -898.24,-110.52 -1159.44,-272.5 -781.91,-495.65 205.07,-176.36 515.11,-237.48 930.67,-183.29 439.04,-299.25 844.28,-295.22 1207.17,0.57 470.62,179.78 800.71,170.25 1001.3,-35.79 1596.97,-674.43 2843.38,-512.18 3737.69,495.66 1466.32,65.76 2282.95,200.2 2459.24,405.26l0 0z"/>
   <path class="fil3" d="M19455.57 35878.14c-2188.89,-405.6 -3388.91,-994.22 -3581.74,-1762.36 -1179.7,-266.33 -2039.38,-321.41 -2581.99,-146.85 -913.26,138.3 -3279.86,-134.75 -7118.78,-821.93 -1579.9,522.68 -3243.41,480.19 -4995.73,-99.52 -917.52,-220.05 -1298.35,-470.96 -1143.91,-742.93 171.4,-259.54 957.55,-227.18 2368.42,99.14 821.62,-221.98 1541.55,-307.14 2147.7,-238.76 510.45,283.22 1712.06,533.98 3603.8,761.52 1921.05,-47.07 3375.08,-22.08 4361.04,84.19 -87.07,-218.21 -53.5,-463.46 76.67,-653.05 139.27,-187.66 362.47,-303.04 599.9,-280.29 1275.66,-277.16 2265.86,-305.18 2961.48,-85.66 848.49,227.02 1409.92,219.73 1686.16,-30.76 512.39,-440.79 976.44,-716.48 1391.88,-826.51 1511.54,-245.22 2385.47,111.9 2623.44,1061.92 53.93,405.74 849.11,497.78 2376.03,274.72 343.86,-142.14 812.24,-223.65 1403.56,-235.41 359.81,150.49 463.93,53.01 323.47,-300.21 -467.82,-797.23 -1340.59,-1270.28 -2627.8,-1420.29 -314.64,31.42 -355.45,-120.55 -125.65,-437.29 208.44,-1837.32 791.5,-2951.38 1758.64,-3341.07 1566.07,-1046.63 3077.02,-1233.91 4545.51,-578.71 657.39,270.54 803.92,644.28 450.67,1113.17 1325.8,-451.67 2008.04,-321.8 2076.32,385.72 33.54,247.67 -20.44,498.75 -154.38,764.92 203.34,-2.74 359.26,44.25 467.8,140.66 147.76,-563.26 462.95,-816.57 944.01,-751.1 354.29,72.28 514.12,-121.79 498.17,-578.6 -117.36,-484.18 -475.5,-808.31 -1066.76,-961.05 -485.43,-95.41 -544.96,-250.7 -173.51,-494.37 1048.07,-519.87 1543.52,-1301.82 1480.25,-2366.05 -224.23,-1082.64 -710.74,-1555.02 -1450.27,-1414.94 -644.13,311.11 -960.47,187.76 -928.47,-376.48 504.28,-1050.73 393.56,-1736.84 -341.51,-2059.71 -1212.25,-629.41 -2422.25,-833.59 -3611.44,-608.69 -402.83,257.31 -735.64,227.46 -1004.52,-109.81 -757.05,-800.24 -903.02,-1724.3 -436.24,-2781.64 -48.44,-655.66 229.87,-1301.99 754.47,-1702.02 526.29,-409.43 1214,-529.48 1842.18,-312.45 566.49,-856.07 1573.88,-1528.46 3022.04,-2016.61 899.8,265.27 1279.48,138.93 1145.06,-358 223.76,-337.26 178.04,-789.62 -128.89,-1075.54 -299.17,-275.1 -751.02,-287.35 -1075.59,-35.4 -267.28,145.94 -380.27,19.84 -348.26,-380.15 -259.48,-499.84 -282.05,-919.22 -77.03,-1259.79 687.21,-1047.6 1959.62,-1634.29 3818.78,-1769.52 657.85,79.94 1255.25,239.86 1792.42,478.7l0 26735.32c-675.87,68.65 -1456.05,9.12 -2331.52,-195.26 -418.29,235.41 -1090.02,319.66 -2007.46,263.82 -924.13,146.1 -1831.12,-23.74 -2711.64,-507.6 -158.72,406.54 -473.96,660.13 -947.27,769.68 952.16,187.55 1564.35,440.37 1834.91,768.22 2529.76,224.61 3601.48,664.99 3224.57,1322.81 -282.75,616.66 -1702.23,887.57 -4256.82,803.63 -4829.82,-437.28 -6537.45,-941.59 -5113.54,-1511.25 -943.35,-292.13 -1690.55,-327.35 -2243.26,-96.51 -1032.66,213.64 -2030.07,172.88 -2995.4,-103.98z"/>
   <path class="fil3" d="M19819.24 28127.74c-674.45,-939.84 -1138.84,-1427.77 -1424.87,-1449.09 -623.87,-23.18 -1160.93,-98.81 -1591.27,-232.87 72.64,-247.8 221.4,-434.1 435.1,-550.84 -434.65,0.5 -641.15,-142.38 -629.04,-429.74 -632,-140.76 -1058.08,-409.09 -1268.52,-803.56 -435.72,-704.86 -407.09,-1414.73 78.34,-2140.36 1113.57,148.24 1711.12,-6.88 1803,-473.85 -338.93,-214.32 -563.1,-475.9 -671.06,-794.48 -225.98,-416.67 -35.6,-837.07 573.87,-1280.18 282.47,-616.42 946.7,-711.72 1993.46,-295.19 454.57,215.57 724.15,166.46 786.48,-131.51 62.19,-462.48 275.59,-849.64 621.03,-1165.43 466.75,-400.49 1095.53,-569.86 1704.42,-462.36 610.51,98.34 1133.99,470.83 1455.76,1000.81 190.11,236.4 380.72,415.1 571.91,535.83 770.35,396.62 670.04,1074.38 -289.96,2025.47 -487.76,793.02 -590.85,1595.87 -301.6,2419.65 331.18,531.65 201.09,721.24 -395.13,596.81 -1067.36,81.92 -1819.55,403.13 -2256.57,963.66 -637.07,708.59 -871.31,1488.28 -702.76,2339.09 53.43,135.03 15.97,292.63 -114.62,375.71 -119.59,75.59 -280.45,56.62 -377.98,-47.57l0 0z"/>
   <path class="fil0" d="M20311.84 27799.59c-168.55,-850.81 65.69,-1630.5 702.76,-2339.09 437.02,-560.53 1189.21,-881.74 2256.57,-963.66 596.22,124.43 726.31,-65.16 395.13,-596.81 -289.24,-823.76 -186.16,-1626.61 301.62,-2419.65 959.98,-951.09 1060.3,-1628.84 289.94,-2025.47 -191.18,-120.74 -381.8,-299.43 -571.91,-535.83 -321.78,-529.96 -845.25,-902.47 -1455.76,-1000.81 -608.89,-107.49 -1237.66,61.87 -1704.43,462.36 -345.43,315.81 -558.83,702.95 -621,1165.43 -62.34,297.97 -331.92,347.06 -786.49,131.51 -1046.76,-416.53 -1710.97,-321.23 -1993.46,295.17 -609.47,443.12 -799.85,863.52 -573.87,1280.19 107.96,318.57 332.13,580.16 671.06,794.46 -91.88,466.98 -689.43,622.1 -1803.02,473.86 -2005.61,-895.05 -3172.58,-1670.95 -3501.21,-2327.75 -277.62,-725.29 -151.76,-1272.94 371.23,-1663.54 -440.38,-406.16 -661.78,-957.33 -675.6,-1645.51 -78.71,-1414.54 532.9,-2417.43 1831.76,-2989.73 418.5,-1056.41 954.15,-1792.63 1589.94,-2221.1 581.47,-448.03 1449.98,-661.75 2594.48,-633.63 1241.47,-302.35 2135.6,48.6 2692.32,1054.91 290.18,51.24 595.04,76.15 915.72,64.96 275.4,-28.62 546.61,77.34 744.97,266.84 196.72,198.94 292.58,476.76 263.35,751.67 268.9,8.86 517.95,130.09 686.58,324.05 112.42,-144.37 238.03,-199.42 380.22,-184.05 279.95,1.07 351.57,-131.04 200.6,-370.26 -513.01,-486.49 -726.78,-862.37 -624.27,-1114.64 -406.63,-487.17 -635.27,-942.95 -695.31,-1368.92 -192.21,-826.09 94.89,-1577 870.82,-2251.64 64.48,-365.11 293.71,-459.93 686.06,-274.81 18.74,-160.89 127.32,-228.7 299.2,-217.53 558.76,117.81 607.27,-47.57 145.54,-496.11 -1147.73,-1487.13 -840.1,-3065.49 911.75,-4726.75 531.75,-495.18 1268.52,-838.56 2219.63,-1027.97 812.26,-387.84 1596.37,-288.03 2341.32,307.22 338.88,214.31 557.08,291.45 641.98,248.37 914.8,-1296.94 2259.92,-1967.5 4036.99,-2020.8 1019.26,-50.92 1965.14,329.12 2655.96,982.12l0 6642.58c-537.17,-238.84 -1134.58,-398.76 -1792.42,-478.7 -1859.17,135.24 -3131.57,721.92 -3818.78,1769.52 -205.02,340.57 -182.45,759.95 77.03,1259.79 -32,399.99 80.98,526.09 348.26,380.15 324.57,-251.94 776.42,-239.7 1075.59,35.4 306.93,285.92 352.65,738.28 128.89,1075.54 134.43,496.92 -245.26,623.27 -1145.06,358 -1448.16,488.15 -2455.55,1160.54 -3022.04,2016.61 -628.18,-217.03 -1315.89,-96.98 -1842.18,312.45 -524.6,400.02 -802.92,1046.36 -754.47,1702.02 -466.78,1057.34 -320.81,1981.4 436.24,2781.64 268.89,337.26 601.7,367.11 1004.52,109.81 1189.19,-224.9 2399.19,-20.71 3611.44,608.69 735.07,322.87 845.79,1008.98 341.51,2059.71 -32,564.24 284.34,687.58 928.47,376.48 739.52,-140.08 1226.03,332.31 1450.27,1414.94 63.28,1064.24 -432.17,1846.18 -1480.25,2366.05 -371.45,243.67 -311.92,398.96 173.51,494.37 591.27,152.74 949.41,476.87 1066.76,961.05 15.95,456.81 -143.89,650.88 -498.17,578.6 -481.07,-65.46 -796.26,187.84 -944.01,751.1 -108.55,-96.41 -264.46,-143.4 -467.8,-140.66 133.94,-266.16 187.92,-517.25 154.38,-764.92 -68.28,-707.52 -750.52,-837.4 -2076.32,-385.72 353.25,-468.89 206.73,-842.63 -450.67,-1113.17 -1468.49,-655.19 -2979.44,-467.92 -4545.51,578.71 -967.14,389.69 -1550.2,1503.75 -1758.64,3341.07 -229.8,316.74 -188.99,468.71 125.65,437.29 1287.21,150.01 2159.98,623.06 2627.8,1420.29 140.47,353.22 36.34,450.7 -323.47,300.21 -591.31,11.76 -1059.7,93.27 -1403.56,235.41 -1526.92,223.07 -2322.1,131.03 -2376.03,-274.72 -237.97,-950.02 -1111.9,-1307.14 -2623.44,-1061.92 -415.44,110.04 -879.49,385.72 -1391.88,826.51 -276.24,250.49 -837.67,257.78 -1686.16,30.76 -695.62,-219.52 -1685.82,-191.5 -2961.48,85.66 -237.43,-22.76 -460.63,92.62 -599.9,280.29 -130.17,189.59 -163.74,434.85 -76.67,653.05 -985.96,-106.26 -2439.99,-131.25 -4361.04,-84.19 -1891.74,-227.54 -3093.35,-478.3 -3603.8,-761.52 -166.22,-97.16 -256.19,-190.27 -267.67,-289 -99.72,-365.19 275.69,-521.2 1125.88,-467.51 929.45,-67.93 1869.63,78.89 2842.23,424.53 291.96,-122.39 731.09,-93.22 1334.61,100.3 201.74,-157.49 500.71,-211.15 884.96,-143.3 -813.75,-423.74 -1152.1,-860.23 -1007.23,-1298.38 -281.03,-1034.89 -118.42,-1682.19 489.31,-1951.68 553.43,-453 1204.8,-859.54 1933.91,-1213.71 293.71,-296.03 697.09,-446.81 1120.7,-439.83 412.74,15.08 805.15,200.21 1077.37,518.63 220.86,116.51 355.84,227.04 421.97,345.14 422.59,-862.32 1336.28,-1387.04 2297.48,-1304.33 430.36,134.05 967.42,209.71 1591.29,232.88 286.04,21.31 750.44,509.27 1424.87,1449.09 97.53,104.19 258.37,123.14 378,47.57 130.57,-83.09 168.03,-240.69 114.6,-375.71z"/>
  </g>
 </g>
</svg>
