<svg xmlns="http://www.w3.org/2000/svg" xml:space="preserve" width="695.029" height="816.945" style="shape-rendering:geometricPrecision;text-rendering:geometricPrecision;image-rendering:optimizeQuality;fill-rule:evenodd;clip-rule:evenodd" viewBox="0 0 865.71 1017.56"><defs><style>.fil44{fill:#150b0a}.fil31{fill:#190a09}.fil27{fill:#1b0b06}.fil12{fill:#292b31}.fil1{fill:#2a2d35}.fil28{fill:#2d2e35}.fil38{fill:#2e2d32}.fil0{fill:#44454a}.fil24{fill:#836c7a}.fil7{fill:#917585}.fil3{fill:#95242a}.fil36{fill:#982c31}.fil19{fill:#9c292d}.fil20{fill:#cacecb}.fil6{fill:#dd3c3d}.fil8{fill:#e24142}.fil15{fill:#f5f6f1}</style></defs><g id="Capa_x0020_1"><g id="_2088480844224"><path d="M18.89 12.21C4.18 43.79 48.34 27.17 90.98 52.89l11.1 8.16c12.01 9.07 17.23 20.07 25.56 34.94 16.65 29.75 9.6 71.09.16 100.52-21.2 66.07-57.34 109.09-38.33 188.8 5.17 21.69 16 52 27.96 70.54 24.93 38.61 12.84 22.75-3.07 68.31-24.36 69.75-15.61 104.98-2.82 173.42 3.99 21.34 4.32 49.14 15.41 64.66 4.73 6.62 16.23 13.18 29.38 10.81 14.03-2.53 25.45-15.88 33.32-26.2 3.65-4.79 5.42-7.01 8.08-12.64 4.39-9.31 7.61-19.38 10.97-28.68 4.85-13.46 10.21-56.18 16.21-63.53 12.1 2.72 38.55 60.88 113.8 47.62 20.98-3.7 31.5 26.18 38.26 43.84 4.06 10.6 8.38 19.24 11.99 31.07 7.87 25.79 16.23 52.46 30.82 73.8 8.85 12.95 23.38 26.29 37.9 47.67l43.25 63.1c5.5 8.97 10.06 18.97 17.63 25.21 4.58 3.78 25.85 12.99 30.57 6.55-1.95-4.72-3.81-6-4.41-10.24 7.15.76 7.85 5.26 10.3 11.44 3.42 2.56-.48 1.17 5.72 2.13 2.42.38 5.11.25 7.44.09 5.37-.37 8.93-1.6 12.02-3.8-1.49-10.35-5.26-12.73-8.9-19.08 14.89.76 8.88 16.29 15.96 23.83 4.56-14.56-4.86-31.53-16.91-34.81-18.44-5.01-20.12-.48-34.7-19.87-16.21-21.56-27.53-41.17-40.12-68.91-11.99-26.41-19.88-53.07-24.8-84.2-4.41-27.94-.14-36.8-1.65-42.41-4.17-15.5-2.3-3.1-2.01-18.11.24-12.49-.37 1.53-4.09-6.99-1.21-2.76 1.13-5.91 2.6-8.82 1.85-3.67 3.76-6.43 4.58-10.19-22.61-18.32-32.45-27.64-52.13-51.5-11.72-14.21-36.5-50.39-39.29-67.52l-27.67 10.67c2.97-5.62-1.25-1.12 4.63-4.65l21.45-9.7c-2.64-8-5.43-16.2-7.27-23.67-2.58-10.48-4.11-12.59-7.59-21.43-6.53.32-35.55 3.31-38.46 1.77 3.97-2.11 12.04-3.7 17.43-3.41l-2.73-3.14c-1.23-1.12-1.43-1.06-2.83-2.02l-9.47-6.59c-2.03-1.58-2.26-1.99-4.01-3.34-25.55-19.71-58.29 5-136.85-37.22-16.72-8.99-19.21-17.52-26.74-20.43l-11.21 6.35c3.95-8.03 2.98-1 2.96-8.47-13.23-9.72-25.55-37.91-30.6-54.85-6.95-23.29-7.43-52.96-2.45-77.13 16.84-81.77 99.34-160.68 20.73-258.58C111.7 23.23 61.34-5.74 18.9 12.17zM578.74 582.3c3.84-4.19 13.71-5.42 19.48-6.7 9.15-2.04 17.2-.76 17.12 7.93-8.87-.9-3.94-5.71-18.04-3l-14.46 3.45c-8.18-.05-1.74.51-4.09-1.67zm56.6-55.34c10.37 8.95-11.9 20.75-21.48 21.98-4.39-2.62-9.33-8.23-12.6-11.56-5.48-5.57-8.74-4.97-8.44-14.7 10.31-3.66 33.97-3.1 42.52 4.28zm25.85-11.48c-1.76-2.95-3.19-6.5-2.98-12.02-.65.62-5.01-1.99-2 4.22-6.78-54.78 44.63-102.03 62.63-56.93 7.48 18.74 5.02 49.92-6.92 62.83-20.69 22.38-47.75 14.41-50.72 1.9zm-99.93-31.84c-4.01 5.7-3.6 11.97-10.07 15.64-1.31 3.24-1.47 4.61-8.69 5.89-2.88.51-8.24 1.02-11.24 1.14-7.17.29-14.76-.71-21.51-2.81-60.78-18.86-40.23-98.11 9.62-102.93 18.16-1.75 25.16 5.62 33.91 13.57 21.76 19.77 11.55 83.22 7.98 69.49zM455.39 360.83c-4.88 4.72-4.29 6.05-8.4 11.86-25.87 36.59-21.67 77.03-28.93 104.85 12.46 5 71.94 27.11 82.25 36.77 3.42 3.21 1.74-.68 2.35 3.88-10.17-3.09-28.03-13.27-40.69-18.65-13.42-5.7-28.51-12.28-42.91-16.43-4.59 3.11-2.05 5.26.76 9.8 1.43 2.32 3.83 6.47 5.9 8.94 3.74 4.47 12.01 11.78 13.48 17.62 10.16 1.19 21.48 2.15 31.75 3.63 5.08.73 9.96 1.71 15.01 2.77 12.75 2.67 10.16 1.28 12.64 5.34l-48.55-6.64-5.71.84c6.2 6.39 2.28-.45 11.68 9.51 4.76 5.04 7.4 4.54 10.64 10.61 8.9-.55 20.78-4.61 29.13-1.6-4.43 3.03-17.44 3.67-23.53 4.31a90.85 90.85 0 0 0 11.02 9.73c26.66 19.88 62.02 36.54 95.67 43.03 34.57 6.67 116.08-18.24 124.25-31.75-5.82-2.1-4.4.07-7.05-4.77l9.62 2.04 5.64-.37c.99-5.71-.13-2.52 4.28-6.01 1.72-1.36 3.11-2.44 4.94-4.33l-10.55-2.52c-5.89.79-3.62 1.67-7.24-2l32.04-.99c5.52-2.29 18.47-22.69-2.55-17.87-9.22 2.11-23.77 7.03-32.2 7.74 2.98-5.69 31.34-12.21 39.67-13.74-3.21-12.02-5.85-9.56-3.23-23.74 8.56-46.23 8.53-78.51-16.77-119.3-14.61-23.56-18.12-20.68-27.07-30.38.77-3.23 2.28-5.6 3.74-8.66l-11.69 1.86c3.6-23.74 40.03-87.38 51.25-103.62 15.95-23.09 41.37-55.21 63.92-71.85 14.51-10.71 12.11-.96 12.16-.78 1.75-1.23 2.67-1.76 4.44-3.33l-2.01-3.61c-18.47 2.2-42.15 19.4-54.2 28.65l-34.31 27.62c-3.6 3.79-6.58 6.82-9.63 10.14l-28.84 47.4c-8.38 15.68-16.3 45.09-19.07 50.49-.14.27-.47.75-.6.96l-1.37 1.83c-4.2.58-9.27-2.02-12.2-4.99-15.55-2.45-34.01-15.1-78.84-18.92-2.86 2.96-.65-.03-2.26 4.33-.03.09-.36 2.35-.69 3.33-6.01-3.13-8.28-15.06-10.84-21.7-2.99-7.78-6.3-15.23-9.28-23.27-8.75-23.59-29.17-64.7-41.54-86.79-7.04-12.58-13.27-27.37-22.7-38.18l-1.63-1.71c5.1 13.06 12.4 26.58 18.2 40.08 13.37 31.16 34.32 114.2 27.49 142.64-9.66-.7.48-6.67-25.18-3.87 3.09 5.01 2.52 2.46 2.56 9.25-19.1 2.06-49.38 22.06-54.23 30.53z" class="fil0"/><path d="M139.02 948.23c1.35 7.88.85 1.56-1.81 3.98-30.73-6.14-36.1-23.21-41.06-47.11-5.06-24.38-12.39-47.05-13.68-73.83 14.75 6.64 8.73 17.86 36.34 18.58-.72-5.29-.69-12.9-.47-18.31.63-15.83-.15-2.89-4.75-11.64 7.79-5.67 51.16-3 84.79-42.13 35.18-40.93 31.76-78.57 34.48-87.52 1.11-3.64.22-1.69 1.76-3.57 4.89 7.24 2.12 26.55-1.47 34.22 21.95-2.52 33.71 4.05 50.36 11.77 11.68 5.42 40.44 7.96 54.24 6.05l15.73-1.85c-.17-.38-.55-1.32-.66-1.07-.11.25-.51-.81-.66-1.03l-3.66-4.7c18.83 1.8 33.12 67.38 35.92 80.21 2.08 9.53 14.01 31.15 19.85 37.69 9.34 10.46 19.3 19.06 28.89 30.19 17.91 20.78 34.56 43.72 50.9 65.7 20.01 26.93 23.76 54.15 65.26 52.11.97-5.83 2.45-9.19-.2-15.08-4.72 6.44-25.99-2.78-30.57-6.55-7.57-6.24-12.14-16.24-17.63-25.21l-43.25-63.1c-14.52-21.38-29.05-34.72-37.9-47.67-14.58-21.34-22.95-48.01-30.82-73.8-3.61-11.83-7.93-20.47-11.99-31.07-6.76-17.66-17.28-47.54-38.26-43.84-75.24 13.26-101.7-44.89-113.8-47.62-6 7.35-11.36 50.06-16.21 63.53-3.35 9.3-6.57 19.37-10.97 28.68-2.66 5.63-4.43 7.85-8.08 12.64-7.87 10.32-19.29 23.68-33.32 26.2-13.15 2.37-24.65-4.19-29.38-10.81-11.09-15.52-11.42-43.33-15.41-64.66-12.79-68.44-21.54-103.67 2.82-173.42 15.91-45.56 28-29.7 3.07-68.31-11.97-18.53-22.79-48.85-27.96-70.54-19-79.71 17.13-122.73 38.33-188.8 9.44-29.43 16.49-70.77-.16-100.52-8.33-14.88-13.54-25.87-25.56-34.94l-11.1-8.16C48.33 27.2 4.18 43.82 18.88 12.24 9.66 17.35 2.8 27.96 9.15 40.49c4.93 9.74 20.1 7.99 32.91 9.67 12.02 1.58 24.34 4.49 33.46 9.52 59.55 32.87 55.62 93.85 35.17 152.13-5.54 15.79-19.73 45.28-24.97 59.44-19.6 52.99-21.8 86.77-4.67 142.89 7.61 24.91 28.59 54.44 29.19 56.03-2.73 3.16-.94 1.12-4.75 3.73-6.33 4.33-2.91-.48-5.14 5.13l9.02 4.19c-2.52 6.83-10.97 10.53-7.59 17.86 5.13-3.69 6.94-9.35 15.39-12.92-3.91 10.89-17.36 23.46-28.2 56.39-17.06 51.85-19.75 89.64-5.8 144.99 2.68 10.64 5.09 24.42 5.87 35.91 2.97 43.92-28.47 34.52-34.16 50.35-6.49 18.06 22.04 109.34 29.65 133.76 9.19 29.5 7.62 44.9 31.72 50.97 9.78 2.46 31.94 7.31 22.77-12.28z" class="fil1"/><path d="M357.44 940.14c-51.9 1.25-49.99-15.87-78.83-56.57l-51.13-83.21c-3.12-7.55-3.96-11.47 1.33-17.26 30.91-33.83 15.77-29.56 23.49-43.89 14.85 3.42-2.35 7.29 16.89 12.43 7.77 2.08 14.66 3.9 22.85 5.09l-.27 7.4c13.1 4.68 22.86 5.24 38.75 3.98l2.04 2.57c5.77 6.15 12.66 3.21 23.58 2.91-2.33 11.26-20.88 19.05-30.04 24.25-14.99 8.51-31.53 10.65-35.47 16.17 8.78 6.14 5.1-6.29 10.46 13.13 1.44 5.22 4.18 10.94 6.39 15.9 4.62 10.34 9.69 22.06 14.85 30.73 26.89 45.14 41.09 13.81 55.61 36.16l-6.48 1.48c4.56 8.83 9.05 12.57 7.01 26.38l-16.68 2.87c1.39-12.42.3-25.09-12.16-25.17 2.84 10.76 9.61 7.22 7.81 24.66zm234.84-231.47c12.78.08 27.59-2.64 40.78-3.43 19.46-1.17 20.56 2.8 30.14 12.17 6.68 6.53 14.52 15.22 20.18 22.68 5.29 6.97 15.19 20.04 8.68 31.19-3.35-4.5-.36-8.53-5.9-14.06-2.88 5.5 1.55 10.01-1.6 17.12-1.3 13.17-13.77 13.54-24.91 8.71 3.12-7.18 7.55-7.24 6.07-18.9-1.12-6.69-.29-5.3-4.65-8.16-.45 1.05-.43.48-.52 2.92l.62 11.12c-6.55 14.54-16.74 6.52-22.23-1.91-5.5-8.44-5.54-21.02-15.25-24.28l1.37 7.2c-14.14.87-47.95 16.44-60.6 22.47-10.24 4.89-19.19 7.78-30.76 10.36l-35.28 6.51c-3.51-4.19-4.14-3.4-6.81-9.16-2.02-4.36-2.88-8.38-3.74-13.23 11.76-.41 6.56 1.21 16.78-8.59 2.43-2.33 1.32-.44 3.64-3.91 8.76 8.74 16.69-6.4 20.93-14.82 4.72.3 1.27 1.2 7.78.99 2.36-5.26 5.58-11.81 6.79-18.68.39.27.81.67 1.13.88.31.21.76.59 1.14.82.4.25 1.88 1.12 2.28 1.33 2.56 1.3.68.7 3.54 1.12 13.94-15.34-1.47-27.14 22.22-34.21.55 18.86-1.82 6.15-6.02 15.04 10.23 2.3 13.36 1.56 24.21.72zM476.7 691.5l4.34-8.89c32.4 13.11 34.48 25.42 74.71 18.86-1 7.4-2.58 15.12-5.52 20.6-5.09-3.75-1.31-3.61-5.73-7.71-3.08 2.97-7.36 15.95-8.61 20.29-6.04-3.1-.46-1.68-5.99-5.76-4.74 9.64-8.56 19.21-17.39 24.22l1.41-11.43c-7.24 3.92-7.76 13.31-21.72 20.92l-.83-5.43c-3.1 2.52-11.56 8.95-16.2 10.96-2.16-13.67-3.09-38.17 3.88-46.72-2.05-2.48 2.75-1.36-2.47-1.99l-5.71 7.9c.69-14.86 2.55-13.3 5.14-24.43l-8.24 3.8c1.78-6.08 4.65-13.19 8.93-15.18zM85.05 936.54c1.35 1.63.18-.35 1.85 2.9.11.21 1.39 3.13 1.41 3.17 7.81 19.26 12.64 24.38 45.9 26.33 29.96 1.76 50.45-3.33 42.66-36.11-5.17-10.47-7.97-16.27-21.35-19.07-17.98-3.77-17.64.17-23.37-17.96-5.48-17.34-12.2-55.14-6.58-72.95 5.83-1.94 14.18-2.37 20.62-4.22 38.58-11.07 74.18-44.83 83.99-84.54l15.03 2.54c1.47 53.53-56.86 22.58-1.92 104.11 10.51 15.6 20.17 31.11 30.37 46.38l30.42 44.43c10.66 9.93 17.53 13.68 38.44 14.76 17.16.88 33.02 1.56 45.25-7.26 6.86-13.42-.67-30.57-8.65-37.87-12.42-11.35-31.88-2.95-40.54-14.03-9.23-11.82-31.78-54.28-34.6-73.14 8.64-4.93 16.21-4.13 36.66-16.43 17.62-10.6 21.25-20.97 28.05-24.4 8.36 17.18 8.33 54.34 31.31 79.09l52.35 59.8c2.71 3.63 4.87 5.73 7.98 9.68l23.61 33.74c3.51 3.85 6.25 9.24 9.68 14.15 9.84 14.08 13.05 28.04 40.68 31.68 17.93 2.36 44.25 3.62 56.63-11.03 4.58-5.42 4.13-12.94 2.89-21.2-14.75-37-30.37-16.55-45.95-33.03-33.71-35.66-59.27-100.81-69.79-150.04-1.96-9.17-4.35-10.48 2.97-14.46 1.63 1.48.37-.71 2.36 3.27l5.75 13.3c7.54 13.57 14.64 7.19 40.21 3.47 30.44-4.44 73.59-33.74 97.99-35.29 8.23 26.93 19.38 26.2 29.19 31.21 12.05 6.16 19.3 7.96 29.62-1.53 4.14-3.8 7.46-4.45 10.65-10.02 6.59-11.5 2.08-23.37-4.04-32-45.49-64.13-47.46-40.57-113.9-39.91 1.96-30.74 4.29-12.19 12.73-34.82 8.43-22.6 1.68-13.71 18.54-27.86.05-1.78.15-3.72.15-4.13 0-.41-.1-3.78-.21-4.62-4.52 3.08-5.75 5.85-10.45 9.3-12.3 9.03-28.24 12.84-32.47 19.73 9.41.45 13.52-5.44 22.74-7.03-4.78 20.49-16.64 33.98-35.79 40.62-33.59 11.64-79.7-24.41-103.17-43-9.15-7.25-34.44-36.75-36.62-37.89-6.61-3.76-12.49-14.14-16.51-22.64-2.01-4.25-4.44-8.33-6.53-12.78-2.61-5.55-2.66-12.59-3.96-15.46l-5.01-21c-2.64-3-.84 2.74-3.16-5.42-2.38-8.35 5.25-20.39-13.05-19.07l-24.88 3.57c-5.39-.3-13.46 1.3-17.43 3.41 2.91 1.54 31.93-1.46 38.46-1.77l13.25-.53c-1.39 19.63-.19 25.58 6.46 42.96l-4.85 2.66-21.45 9.7c-5.88 3.53-1.67-.97-4.63 4.65l27.67-10.67 5.44-1.9c4.28 17.22 29.68 55.14 38.41 63.39 5.4 5.11 8.93 8.27 13.74 12.82 15.68 14.84 22.2 22.22 41.53 33.63-2 5.09-3.63 8.3-7.7 11.08-.82 3.76-2.73 6.53-4.58 10.19-1.47 2.92-3.81 6.06-2.6 8.82 3.72 8.52 4.34-5.5 4.09 6.99-.29 15-2.16 2.6 2.01 18.11 1.51 5.61-2.77 14.46 1.65 42.41 4.92 31.12 12.81 57.79 24.8 84.2 12.59 27.73 23.91 47.35 40.12 68.91 14.58 19.39 16.26 14.85 34.7 19.87 12.05 3.28 21.46 20.25 16.91 34.81-7.08-7.54-1.07-23.07-15.96-23.83 3.63 6.35 7.41 8.74 8.9 19.08.52 17.02-10.13 16.86-25.52 16.41l.34-14.84c-2.45-6.17-3.15-10.67-10.3-11.44.6 4.24 2.46 5.52 4.41 10.24 2.65 5.89 1.16 9.25.2 15.08-41.5 2.04-45.25-25.18-65.26-52.11-16.34-21.98-32.99-44.92-50.9-65.7-9.6-11.13-19.56-19.73-28.89-30.19-5.84-6.54-17.77-28.15-19.85-37.69-2.8-12.83-17.09-78.41-35.92-80.21l3.66 4.7c.15.22.55 1.28.66 1.03.12-.25.49.69.66 1.07l4.48 12.28c4.03 3.34 8.63 13.42 8.45 18.42l-27.83 1.64c4.42-4.71 4.72.04 4.16-5.71-12.37-3.52-30.15 3.42-43.28-2.63l8.86-4.43c-10.35-4.52-34.22-6.63-42.03-11.81 3.94-1.92 2.32.54 6.29-3.05-9.91-7.21-27.32-9.59-36.4-12.13-7.32-2.05-2.69-1.13-3.03-8.55 3.59-7.67 6.36-26.98 1.47-34.22-1.53 1.88-.65-.07-1.76 3.57-2.72 8.95.69 46.59-34.48 87.52-33.63 39.13-77 36.46-84.79 42.13 4.6 8.76 5.38-4.19 4.75 11.64-.21 5.42-.25 13.02.47 18.31-.55 20.06 5.34 47.08 13.72 61.86 8.55 15.07 40.48-4.57 40.44 35.97-4.21-3.7-3.81-7-6.08-11.41-2.27-4.4-4-6.21-9.05-7.57 2.49 5.78 6.2 9.03 7.4 15.12 1.94 4.08 1.37 12.01-2.38 15.31-3.51 3.08-13.51 3.58-19.07 4.23l.72-12.5c-1.71-7.93-3.83-13.78-11.43-13.12 1.98 6.42 3.04 2.73 5.94 10.48 9.17 19.59-12.99 14.74-22.77 12.28-24.1-6.07-22.53-21.47-31.72-50.97-7.61-24.42-36.14-115.7-29.65-133.76 5.69-15.83 37.13-6.43 34.16-50.35-.78-11.49-3.18-25.27-5.87-35.91-13.95-55.35-11.26-93.14 5.8-144.99 10.83-32.94 24.28-45.51 28.2-56.39-8.44 3.57-10.25 9.23-15.39 12.92-3.38-7.33 5.06-11.03 7.59-17.86l-9.02-4.19c2.23-5.61-1.2-.79 5.14-5.13 3.81-2.61 2.02-.57 4.75-3.73-.6-1.6-21.58-31.12-29.19-56.03-17.13-56.12-14.93-89.9 4.67-142.89 5.24-14.16 19.43-43.66 24.97-59.44 20.45-58.28 24.38-119.27-35.17-152.13-9.12-5.03-21.44-7.95-33.46-9.52-12.81-1.68-27.98.07-32.91-9.67-6.35-12.53.52-23.14 9.73-28.25C61.3-5.68 111.67 23.3 138.02 56.13c78.6 97.9-3.89 176.81-20.73 258.58-4.98 24.18-4.5 53.84 2.45 77.13 5.05 16.94 17.37 45.13 30.6 54.85.02 7.47.99.44-2.96 8.47l11.21-6.35c11.83-5.17 18.64-11.16 35.28-12.91 32.2 44.8 84.53 58.2 141.05 52.52.29.31.58.77.76 1.02l5.96 7.16-2.29-14.86-4.66 1.51c-7.38-1.35-26.06.71-36.42-.23-9.72-.88-21.79-2.89-31.35-5.21-35.63-8.64-66.51-36.26-83.44-67.22-8.65-15.83-18.5-32.05-23.67-51.34l-3.61-15.8c9.55 2.33 23.08 19.99 48.8 27.97 10.35 3.21 55.99 10.88 66.6 9.67 8.31-2.07 8.14 0 14.62.56l.9-3.3c-.29-4.24-4.47-13.16-6.01-19.76l-11.21-63.95c6.03 3.38 12.16 7.49 14.78 13.88 4.73 1.89 8.72 5.89 13.86 9.13 15.67 9.86 31.92 16.11 46.29 24.52 16.31 9.54 27.12 20.17 33.78 37.15 1.86 4.75 2.81 12.46 4.42 15.62 2.33 1.49 3.61 1.08 4.64 9.22 1.15 9.1.93 24.24-.86 32.62l3.47.33c4.84-118.47-57.2-88.23-114.22-145.66-22.63-22.79-7.22 33.47-6.1 41.66 2.8 20.38 5.62 27.18 10.87 44.67-42.5-6.4-69.98-4.93-101.89-26.11-2.66-1.77-34.08-29.98-27.86-.11 2.22 10.66 8.5 26.04 12.89 35.79 10.7 23.76 14.83 25.5 23.36 41.53l-1.82 1.15c-7.9 3.94 3.35-1.28-1.97.97l-12.88 4.8c-5.94 2.6-10.28 5.69-15.79 7.75-32.11-33.49-40.77-88.82-29.43-134.11 11.6-46.35 35.52-80.67 47.46-126.76 18.14-70.04-22.14-145.94-81.82-171.09C-1.16-27.28-18.78 43.7 17.65 54.16c20.71 5.95 34.83-2.94 67.28 19.66 42.64 29.7 36.61 85.1 21.24 129.3-24.59 70.71-63.03 119.76-33.03 208.6 8.77 25.96 17.13 39.42 29.51 57.01-8.23 6.66-16.7 7.21-2.86 17.71-1.69 3.92-5.06 6.74-5.65 11.94-1.16 10.25 3.92 6.97 2.19 13.66-.62 2.4-9.29 19-11.37 24.02-6.88 16.62-12.88 37.78-15.42 56.95-10.19 76.79 26 132.33 7.8 158.26-17.14 24.44-52.35-20.7-8.12 129.28 2.91 9.85 15.97 49.45 15.8 56.05z" style="fill:#220d0b"/><path d="M176.87 932.82c7.79 32.78-12.7 37.87-42.66 36.11-33.26-1.95-38.09-7.07-45.9-26.33-.01-.03-1.3-2.95-1.41-3.17-1.67-3.25-.5-1.27-1.85-2.9-4.63 6.01-43.87 4.37-53.79 18.73-7.03 27.15 175.4 29.24 181.19 29.56 65.76 3.61 126.87 14.72 191.73 21.27 63.78 6.44 134.9 14.63 196.42 1.21 9.15-2 31.21 5.22 43.08 7 16.74 2.51 32.53 3.14 49.86 3.24 23.06.13 79.84-.06 89.12-17.62-.52-5.17-1.64-6.8-4.92-8.97-2.25-1.48-2.79-1.12-4.94-2.41-4.29-2.56-1.76.44-3.8-3.53-8.94 4.76-11.41 10.62-33.5 18.51-14.14 5.05-31.64 6.42-47.55 4.55-25.06-2.96-37.68-11.06-54.62-23.2-5.84-4.18-9.23-9.15-13.7-13.16-2.15 4.07.11 1.78-5.58 1.56-.07 0-5.97-1.35-6.09-1.38-5.18-1.35-8.38-2.46-14.14-2.82 1.25 8.26 1.69 15.78-2.89 21.2-12.37 14.65-38.7 13.39-56.63 11.03-27.64-3.64-30.84-17.6-40.68-31.68-3.43-4.91-6.17-10.29-9.68-14.15l-96.18-16.44c-12.23 8.82-28.09 8.15-45.25 7.26-20.9-1.08-27.77-4.83-38.44-14.76l-31.11.59c-20.84-.31-82.49-1.79-96.1.69z" class="fil3"/><path d="M488.56 592.64c7.01 1.06 10.78 4.86 16.08 7.39 14.17 6.78 28.19 11.84 43.26 15.61 9.95 2.49 7.71 3.16 9.08 5.72-8.31 3.79-10.33 3.62-19.8-.74-13.56-6.23-41.4-16.68-48.62-27.97zm256.63-162.11c-3-5.77-4.09-8.34-.57-12.46 6.29-7.37 22.13-28.76 25.6-30.8-.91 8.34-15.88 39.03-25.03 43.26zm-28.32-91.79c8.42-.11 16.14-2.89 23.68 1.55-1.14 1.68.03.73-2.74 2.97-4.48 3.61-9.7 4.3-12.49 8.84.35.26.92.13 1.13.66.63 1.61 11.32 2.53 15 4.59 2.1 1.18 1.76 1.11 2.81 2.13-4.1 4.11-9.67 7.27-15.38 9.87 2.13 5.07 4.6 5.77 7.84 10.79l-10.61 3.85c-5.99-7.21-8.02-13.89-18.51-25.25-4.79-5.19-4.09-3.02-9.06-7.11 3.03-5.45 3.87-2.54 3.62-9.8-3.09-1.56-7.42-1.97-10.03-4.48 6.68-11.92 6.67-14.81 17.76-22.03 6.68-4.35 16.44-10.89 25.64-12.47-1.14 11.91-18.9 23.02-18.65 35.9zm-207.75-23.67c-9.99 5.4-4.12 4.97-7.42 12.25-18.98 6.03-25.17 11.93-39.72 19.38l-5.17 4.74c-5.55 5.02-9.13 9.57-20.74 3.06 3.48-5.67 12.41-10.02 19.34-13.94-1.54-8.36-9.96-8.47-15.53-15.02 5.95-4.96 19.02-2.08 26.06-5.84-2.47-9.58-12.79-10.01-14.1-18.59 18.16-3.91 24.07 3.29 36.85 2.52.76-10.75-3.42-20.15-3.39-30.45l-1.62-9.26c12.28 3.28 29.28 27.82 35.98 36.26 5.32 6.71 7.56 7.6 8.31 16.57-7.76-1.17-9.66-3.15-18.85-1.67zm-63.64-17.06.11-.5c-.91 11.17 7.43 14.69 12.11 19.58-8.5.51-17.81-.1-23.86 5.5.57 7.68 9.12 10.84 14.39 16.23-2.78 1.92-5.14 2.71-8.13 4.72-21.43 14.43.59 17.42 3.21 18.89-4.95 5.99-11.73 12.88-14.44 20.18l-9.56-1.19-6.13-24.61c-3.66-8.69-6.18-19.23-8.35-28.79-1.55-6.84-1.71-10.33-5.32-15.42-.19-.27-.51-.55-.69-.82-2.85-4.17-2.67-5.34-2.44-12.76 1.26-40.77 7.51-91.86 18.93-130.63 8.94-30.36 10.85-30.43 19.46-54.34 2.93-5.19 7.44-12.57 10.41-15.8 3.65.63 5.32 1.1 7.76 3.2 5.4 4.65-1.47.07.31 4.41l6.54 6.27c11.89 11.82 33.32 54.51 38.74 70.46 19.44 57.17 20.55 54.98 28.46 118.38l-5.73-6.83c-5.93-8.76-26.66-35.46-37.09-34.88-10.2.57-1.89 28.04.36 39.76-18.69-4.63-20.57-6.82-39.05-1.01zm-55.17 139.06c2.7 4.65 2.56 1.04 3.61 5.6 2.3 9.96-1.86 6.28-2.41 6.66l-1.67.83c.97 3.12.66 2.54 1.52 4.71 4.18 1.71 1.87-2.42 3.31 5.05 2.78 14.38-15.67 10.28-16.93 10.85-2.29 2.42-1.41.39-4.42 4.84 11.25-1.98 12.47-4.47 24.03.1 6.99 2.77 16.11 4.67 21.71 7.42 14.4 4.15 29.49 10.74 42.91 16.43 12.66 5.38 30.52 15.56 40.69 18.65-.61-4.56 1.07-.67-2.35-3.88-10.31-9.66-69.79-31.77-82.25-36.77l-21.12-7.04c-1.65-3.37-.08-.34.02-2.29l.12-3.45c-1.74-29.23 12.51-56.22 11-66.52-.58-3.96-4.14-11.36-5.39-16.61-3.8-15.89-7.37-45.54-5.81-62.14 3.41 4.89 12.53 43.22 17.67 58.03 1.53 4.41 1.92 4.52 5.29 6.19l7.47 4.43 12.47-13.87c4.82-5.28 6.73-11.76 15.6-13.45 4.85-8.47 35.12-28.47 54.23-30.53-.04-6.79.53-4.24-2.56-9.25 25.65-2.8 15.51 3.17 25.18 3.87 6.83-28.44-14.11-111.48-27.49-142.64-5.8-13.5-13.1-27.02-18.2-40.08l1.63 1.71c9.42 10.81 15.66 25.6 22.7 38.18 12.37 22.1 32.79 63.21 41.54 86.79 2.98 8.04 6.29 15.49 9.28 23.27 2.55 6.64 4.83 18.57 10.84 21.7.33-.98.66-3.23.69-3.33 1.61-4.36-.6-1.37 2.26-4.33 44.83 3.82 63.29 16.47 78.84 18.92 6.9 1.18 1.7.48 3.36-1.07-3.17-3.77-13.16-8.17-18.21-9.35 2.22-5.98 30.39-41.08 35.48-46.08 13.62-13.37 26.42-31.38 41.44-39.19 3.06-3.32 6.04-6.35 9.63-10.14l34.31-27.62c12.04-9.26 35.73-26.45 54.2-28.65l2.01 3.61 1.32 8.16c.05 38.5-8.18 74.39-16.33 109.63-4.56 19.73-22.89 84.27-32.04 94.21l-21.08 26.77c-1.87 3.6-3.65 6.61-7.66 8.58l-2.33-7.63c-4.02-3.8-6.68-12.66-8.74-17.37 7.13-2.83 9.8-1.27 14.17-7.38-1.03-6.11-3.39-6.57-7.61-10.33 5.52-5.28 8.55-3.68 13.71-11.81-3.08-5.46-7.11-7.32-14.57-7.92l4.02-3.77c1.53-1.25 1.44-1.01 2.74-1.98 1.47-1.09 2.98-2.39 4.24-3.51-2.82-10.5-11.43-8.53-22.85-9.15 3.4-6.82 18.56-23.47 16.73-33.69-12.04-4.9-27.67 10.16-36.34 13.8 5.16-19.48 34.29-62.62 45.94-80.4 10.63-16.22 46.32-58.21 62.24-62.89-.05-.18 2.35-9.93-12.16.78-22.55 16.64-47.97 48.76-63.92 71.85-11.23 16.25-47.65 79.89-51.25 103.62l11.69-1.86c-1.46 3.06-2.97 5.43-3.74 8.66 8.95 9.7 12.46 6.82 27.07 30.38 25.29 40.79 25.33 73.07 16.77 119.3-2.62 14.18.02 11.72 3.23 23.74-8.33 1.54-36.7 8.05-39.67 13.74 8.42-.72 22.98-5.63 32.2-7.74 21.02-4.81 8.07 15.58 2.55 17.87l-32.04.99c3.62 3.67 1.35 2.78 7.24 2l23.23.83c-1.86 5.9-1.15 3.81-4.53 7.35-8.91 9.33-8.37 10.18-23 5.05l-9.62-2.04c2.65 4.85 1.22 2.67 7.05 4.77 4.02 2.17 6.81 2.42 11.05 4.4-3.05 4.98-19.84 14.69-27.13 18.54-32.06 16.95-79.67 25.58-117.59 22.62-32.81-2.56-87.1-28.83-114.6-49.21-12.47-9.24-9.54-2.58-13.4-9.86 5.87-4.94 21.91-5.73 30.74-7.49 6.08-.64 19.1-1.29 23.53-4.31-8.35-3.01-20.23 1.05-29.13 1.6-23.1 4.91-27.92 8.49-35.56 1.17-7.58-7.27-8.26-5.2-18.6-16.72-.9-1.01-1.91-2.09-2.83-3.24l-3.23-4.39 43.62 2.22 48.55 6.64c-2.48-4.06.11-2.67-12.64-5.34-5.05-1.06-9.94-2.04-15.01-2.77-10.26-1.48-21.58-2.45-31.75-3.63l-42.86-3.46c4.15 6.13 7.82 1.8 8.62 12.93l-.72.46c.35.28.77.35.94.96.65 2.33 10.25 6.67 14.93 11.03 2.64 2.47 4.73 4 6.7 6.85 5.41 7.8-1.9 2.96 6.55 6.33 7.97 3.18 8.96 6.48 15.41 11.3 5.47 4.08 10.6 6.42 15.9 10.65 22.87 18.29 15.32 16.72 45.27 34.42l13.61 7.19c3.88 2.5 2.14.55 4.14 4.33 8.54 5.8 48.69 16.62 54.74 2.82l-22.21 2.55c4.99-10.86 11.2-6.64 24.12-6.62 9.02.02 19.77-1.53 27.29-1.26l-1.53 12.66c.11.84.21 4.21.21 4.62 0 .41-.1 2.35-.15 4.13 5.53-6.74 7.59-10.6 7.62-22.5 37.37-2.53 77.19-20.44 100.03-38.95 6.17-5 7.84-2.48 23.31 3.54 19.92 7.76 70.26 33.76 70.78 33.94-3.26-7.54-30.52-21.17-39.24-25.65-9.35-4.81-38.82-15.28-44.55-19.77 5.08-4.63 7.44-9.14 12.67-16.32 34.91-2.1 70.84 12.04 103.58 17.04l-1.83-1.68c-15.63-10.96-81.83-19.33-98.11-20.59 1.96-8.3 6.43-4.77 4.64-16.29-.65-4.19-2.08-2.79-.14-4.58 14.87-9.73 113.15-7.91 116.8-10.53-20.48-9.22-95.59 2.02-120.14 5.25-11.32-20.74 5.51-30.96 1.12-86.89 10.23-9.21 21.73-25.45 27.02-39.09 3.82-9.85.55-12.47 3.25-20.23 3.42-9.84 9.07-20.5 12.88-31.48 3.89-11.21 7.29-22.88 10.83-34.98 8.22-28.08 33.42-130.69 18.33-154.1-24.88-5.41-95.11 53.25-105.47 64.04-6.91 7.2-14.65 12.24-21.75 19.58-7.34 7.59-12.98 15.13-20.28 22.55-7.34 7.47-13.28 14.86-19.88 22.89l-18.58 24.47c-9.85-2.29-18.97-5.56-29.79-7.53-20.69-3.76-30.32-.15-34.39-8.2l-4.67-13.05c-19.76-52.12-57.56-127.48-90.81-168.93-25.24-31.47-32.88-26.82-46.9 4.18-27.18 60.08-44.34 177.3-33.8 244.81 1.03 6.62 2.12 13.16 3.89 19.69 7.49 27.61 8.76 3.81.89 35.51-.86 3.45-1.48 6.16-2.13 9.75-1.65 9.1-1.39 8.31-5 9.8z" style="fill:#1d0d0d"/><path d="M357.44 940.14c1.8-17.45-4.97-13.91-7.81-24.66 12.46.08 13.55 12.74 12.16 25.17l16.68-2.87c2.04-13.81-2.45-17.56-7.01-26.38l6.48-1.48c-14.52-22.35-28.72 8.98-55.61-36.16-5.17-8.67-10.24-20.39-14.85-30.73-2.21-4.96-4.95-10.68-6.39-15.9-5.37-19.42-1.68-6.99-10.46-13.13 3.94-5.52 20.48-7.65 35.47-16.17 9.16-5.2 27.71-12.99 30.04-24.25-10.92.3-17.81 3.24-23.58-2.91l-2.04-2.57c-15.89 1.26-25.65.7-38.75-3.98l.27-7.4c-8.19-1.19-15.08-3.01-22.85-5.09-19.24-5.14-2.04-9-16.89-12.43-7.72 14.33 7.42 10.06-23.49 43.89-5.29 5.79-4.45 9.71-1.33 17.26l51.13 83.21c28.84 40.7 26.94 57.82 78.83 56.57z" style="fill:#2a2d32"/><path d="M620.24 854.7c-1.02 12.14-6.93 13.4-2.42 37.69 6.02 32.38 38.27 58.98 68.18 58.83l.99-3.27 9.18 3.64 2.03-10.86-5.58-6.88c6.37.05 3.62 1.47 9.22 2.6l3.07-14.39c-4.59-2.55-6.13-2.29-7.83-6.24 3.98-2.29 4.02.3 9.06.95l1.41-9.75c-5.31-3.16-5.69-1.31-7.88-5.95 3.66-1.94 4.21-.56 8.44 1.01l3.04-12.52-7.64-4.11c.64-.81 1.2-1.35 1.36-1.01.15.33.81-.3 1.01-.32.2-.02.77-.17 1.01-.17l5.46 1.78 6.87-16.3c-5.39-1.96-5.95-.82-7.47-5.24 3.54-1.66 6.36.35 9.2 2.09 2.64-3.01 6.28-6.22 9.03-9.47-4.67-5.75-4.31.4-5.41-7.09 12.09 2.01 4.72 7.01 18.52-2.27-3.43-2.54-4.31-1.82-4.49-6.12 9.36.45 1.04 5.7 18.52 1.8-2.05-5.17-2.14-1.41-4.75-7.19 10.33.87 8.32 8.88 17.24 2.12-11.76-7.89-16.5-14.4-33.89-20.5-14.85-5.21-30.26-7.96-48.42-5.21-28.82 4.36-60.13 22.77-67.06 42.38z" class="fil6"/><path d="M413.19 356.81c4.9-5.69-2.18-18.16 21.74-45.01 2.6-2.92 3.47-3 5.64-5.97l5.03-8.32-.11.5.2-4.83 20.81-8.79c14.2-7.83 5.38-69.71 2.86-81.4-2.39-11.09-24.86-83.97-34.58-88.94-8.61 23.91-10.52 23.99-19.46 54.34-11.42 38.77-17.67 89.86-18.93 130.63-.23 7.42-.41 8.59 2.44 12.76.19.27.51.56.69.82 3.62 5.09 3.77 8.58 5.32 15.42 2.17 9.57 4.69 20.1 8.35 28.79z" class="fil7"/><path d="M159.84 359.2c.38.24.9.22 1.06.84l3.23 3.62c14.37 22.1 31.26 44.61 49.98 63.53 2.89 2.92 4.86 6.15 8.63 9.06 23.53 18.16 45.02 24.98 76.73 26.71 5.88.32 11.9.71 17.78.88 1.6.04 7.79.12 9.03-.12 9.19-1.81 4.74 1.06 5.95-4.38l-16.16-2.93 4.77-.89c-1.02-7.55-8.11-8.25-14.43-10.94l-6.18-3.99c-6.72-1.92-35.67-18.28-29.19-26.91 15.25-12.6 67.54 28.78 74.24 34.52 3.36-2.1 9.7-6.94 12.47-9.57-10.81-13.35-19.79-25.99-34.99-35.98-9.53-6.26-24.37-14.01-36.13-17.08-5.3-1.39-11.42-1.76-15-4.51-10.6 1.21-56.24-6.46-66.6-9.67-25.73-7.98-39.25-25.63-48.8-27.97l3.61 15.8z" class="fil8"/><path d="m414.32 610.71.02 3.62c2.18 1.14 27.47 30.65 36.62 37.89 23.47 18.59 69.58 54.64 103.17 43 19.16-6.64 31.01-20.13 35.79-40.62-9.22 1.59-13.33 7.48-22.74 7.03 4.22-6.88 20.17-10.7 32.47-19.73 4.7-3.45 5.93-6.22 10.45-9.3l1.53-12.66c-7.52-.27-18.28 1.28-27.29 1.26-12.92-.02-19.13-4.25-24.12 6.62l22.21-2.55c-6.06 13.8-46.2 2.98-54.74-2.82-15.29-3.65-38.4-21.46-50.16-30.76-12.35-9.77-10-11-26.2-20.28 4.04 8.88 33.88 33.62 43.88 39.44 8.97 5.22 17.34 11.15 25.76 15.61 8.03 4.26 23.36 9.76 26.44 13.5-25.9 3.14-42.34-10.47-62.8-13.78.89 7.92 4.21 10.18 8.07 13.82 7.01 6.62 14.25 13.45 22.63 18.73 4.82 3.03 9.06 4.63 12.32 9.91-57.27-1.72-106.92-55.25-113.29-57.94z" style="fill:#a3252b"/><path d="M434.77 114.04c9.72 4.97 32.19 77.84 34.58 88.94 2.52 11.69 11.34 73.57-2.86 81.4l-20.81 8.79-.2 4.83c18.48-5.81 20.35-3.62 39.05 1.01-2.24-11.72-10.56-39.18-.36-39.76 10.43-.59 31.16 26.12 37.09 34.88l5.73 6.83c-7.91-63.4-9.02-61.21-28.46-118.38-5.42-15.95-26.85-58.64-38.74-70.46l-6.54-6.27c-1.78-4.34 5.1.24-.31-4.41-2.44-2.1-4.12-2.57-7.76-3.2-2.97 3.23-7.48 10.6-10.41 15.8z" style="fill:#665669"/><path d="M769.51 378.64c9.15-9.94 27.48-74.48 32.04-94.21 8.15-35.25 16.38-71.14 16.33-109.63-14.85 7.29-47.43 73.36-57.38 95.34-4.43 9.79-19.12 47.88-15.6 57.23 1.93 5.13 5.34 6.37 8.13 11.05 7.92 13.3 10.03 32.93 16.47 40.22z" class="fil7"/><path d="M705.08 954.11c8.54-4.24 23.9-4.18 33.7-7.79 10.85-3.99 18.67-7.99 26.49-14.83 17.7-15.5 24.06-27.48 25.41-59.29-.31-9.51-11.69-23.31-16.1-27.88-16.32-.5-1.39 2.15-7.26 8.99-2-2.34-2.66-3.72-4.24-6.84l-11.41 3.44c2.71 2.82 3.64 3.05 4.1 8.38-3.67-1.02-2.22-.66-4.85-2.82-2.46-2.02-1.33-1.89-4.24-3.91l-8.06 4.89c.38.68.75.77.85 1.31l1.88 2.82c2.43 4.11 1-1.75 2.05 4.68-5.13-.24-4.81-1.86-8.53-5.18l-8.44 8.37c3.25 3.65 4.97 3.11 5.34 8.68l-8.91-4.89-4.37 17.04c.57.48 2.19 1.72 2.56 2.06 2.86 2.62 1.11-.71 2.96 3.71-4.42 2.09-4.77-1.98-9.16-.36l-2.2 9.56 7.07 5.39c-3.66 2.56-2.47.88-7.86.23-2.22 15.67-1.61 7.03 5.07 14.79l-3.87 1.3c-.29.02-2.67-.43-3.84-.49l-3.38 13.93c4.6 4 4.46.5 6.82 5.93-8.18 3.6-7.02-7.87-11.19 7.38l3.61 1.41z" style="fill:#dc403d"/><path d="M445.65 608.68c-4.74-1.82-15.38-15.29-19.59-20.06-6.67-7.56-11.83-14.17-17.62-24.01l-5.35.68c-5.82-.32-6.75.84-12.28 2.39 2.72 11.5 17.06 38.31 23.52 43.03 6.37 2.69 56.03 56.23 113.29 57.94-3.26-5.28-7.5-6.88-12.32-9.91-8.38-5.28-15.61-12.1-22.63-18.73-3.86-3.64-7.18-5.91-8.07-13.82 20.46 3.31 36.9 16.92 62.8 13.78-3.07-3.74-18.4-9.24-26.44-13.5-8.42-4.47-16.79-10.39-25.76-15.61-10-5.82-39.84-30.56-43.88-39.44-20.37-12.84-13.66-18.06-30.26-12.09 2.29 16.13 38.63 57.94 40.5 62.25-6.54-3.07-10.62-11.24-15.9-12.9z" class="fil6"/><path d="M661.17 770.02c-18.97-5.67-14.52-29.22-33.37-36.34-13.66-5.16-44.62 2.47-60.82 3.2-.02-4.71 2.08-6.73 4.29-9.71 18.34-24.78 13.29-12.57 21.01-18.5-10.85.84-13.98 1.58-24.21-.72 4.2-8.89 6.57 3.82 6.02-15.04-23.69 7.07-8.28 18.86-22.22 34.21-2.86-.42-.98.18-3.54-1.12-.4-.2-1.88-1.08-2.28-1.33-.38-.23-.83-.62-1.14-.82-.31-.21-.74-.61-1.13-.88-1.21 6.87-4.44 13.42-6.79 18.68-6.51.21-3.06-.69-7.78-.99-4.24 8.42-12.17 23.56-20.93 14.82-2.32 3.47-1.21 1.58-3.64 3.91-10.22 9.81-5.02 8.18-16.78 8.59.86 4.86 1.71 8.87 3.74 13.23 2.67 5.75 3.3 4.97 6.81 9.16l35.28-6.51c11.57-2.58 20.52-5.47 30.76-10.36 12.64-6.03 46.46-21.6 60.6-22.47l-1.37-7.2c9.71 3.26 9.75 15.84 15.25 24.28 5.5 8.44 15.68 16.45 22.23 1.91z" class="fil12"/><path d="M812.12 169.96c-15.91 4.68-51.61 46.67-62.24 62.89-11.65 17.78-40.77 60.92-45.94 80.4 8.66-3.63 24.3-18.7 36.34-13.8 1.83 10.22-13.33 26.87-16.73 33.69 11.41.61 20.03-1.36 22.85 9.15-1.27 1.12-2.77 2.42-4.24 3.51-1.3.97-1.22.73-2.74 1.98l-4.02 3.77c7.46.6 11.49 2.46 14.57 7.92-5.16 8.12-8.19 6.53-13.71 11.81 4.21 3.76 6.58 4.22 7.61 10.33-4.37 6.11-7.04 4.55-14.17 7.38 2.07 4.71 4.72 13.57 8.74 17.37l.26-3.31c5.86.71 4.88.99 9.73 2.37l21.08-26.77c-6.43-7.29-8.54-26.92-16.47-40.22-2.79-4.68-6.2-5.92-8.13-11.05-3.52-9.35 11.16-47.44 15.6-57.23 9.95-21.99 42.53-88.05 57.38-95.34l-1.32-8.16c-1.78 1.57-2.7 2.1-4.44 3.33z" style="fill:#6c5a65"/><path d="M705.08 954.11c2.12 1.99 1.89 1.79 3.12 4.74l-10.17-.77-3.28 8c.08.18.57.14.71.64.71 2.52.9-.17 4.88 3.7-9.19 6.95.33-6.64-15.2 7.63.82.73 2.98 2.02 3.02 2.07 2.69 2.72 1.36-.42 2.7 3.77-5.8.22-9.25-1.71-13.74 1.35-3.76 2.57-1.84 2.3-.24 4.6 6.86 9.87-2.09-7.37 2.16 2.75-8.53.15-10.22-4.29-14.95 2.98 20.35 4.31 30.51 10.91 60.12 3.99 35.55-8.3 60.76-33.16 70.61-68.05 4.04-14.3 6.59-49.07-4.16-59.3-1.35 31.8-7.71 43.79-25.41 59.29-7.82 6.84-15.64 10.84-26.49 14.83-9.81 3.61-25.16 3.55-33.7 7.79z" style="fill:#962529"/><path d="M547.44 461.29c-5.74 43.8-36.62 44.23-28.37-.29 2.1-11.36 7.94-27.77 16.45-30.89 14.13-5.19 13.08 22.35 11.92 31.19zm3.75 37.98c6.47-3.67 6.06-9.93 10.07-15.64-2.1-12.2 6.64-48.48-14.01-67.9-34.94-32.86-96.69 30.21-61 66.89 19.65 20.19 31.55 20.23 64.93 16.65z" class="fil15"/><path d="M703.19 569.25c-8.17 13.5-89.68 38.41-124.25 31.75-33.65-6.49-69.01-23.15-95.67-43.03-4.2-3.13-7.97-6.54-11.02-9.73-8.83 1.76-24.87 2.55-30.74 7.49 3.86 7.28.93.62 13.4 9.86 27.5 20.38 81.79 46.65 114.6 49.21 37.92 2.96 85.53-5.67 117.59-22.62 7.29-3.86 24.08-13.57 27.13-18.54-4.24-1.98-7.03-2.22-11.05-4.4z" class="fil12"/><path d="M339.1 384.56c-.94-5.07-.43-5.2 1.57-8.8 10.59-.07 13.02 7.16 17.72 14.81 3.18 5.17 9.07 15.39 9.09 21.99 3.97 2.61 6.14 6.75 7.94 11.22 2.28 5.66.52 8.4 7.46 8 2.27-8.32.25-18.31.6-26.95l-.43-9.94c-1.61-3.16-2.56-10.87-4.42-15.62-6.66-16.97-17.47-27.61-33.78-37.15-14.38-8.41-30.62-14.66-46.29-24.52-5.13-3.23-9.12-7.24-13.86-9.13-4.25-.14-.96-1.28-3.27.82 8.14 29.88 25.37 73.97 57.07 84.68 0-.02-.43-5.1-.43-5.11.09-2.49.8-3.7 1.02-4.3z" class="fil8"/><path d="M139.02 948.23c-2.9-7.75-3.96-4.06-5.94-10.48 7.6-.66 9.72 5.18 11.43 13.12 7.44 1.93 12.92 1.52 19.58-1.89l1.15-5.15c-1.2-6.09-4.91-9.34-7.4-15.12 5.05 1.36 6.78 3.17 9.05 7.57 2.27 4.41 1.88 7.71 6.08 11.41.03-40.54-31.89-20.91-40.44-35.97-8.39-14.78-14.27-41.8-13.72-61.86-27.61-.71-21.58-11.94-36.34-18.58 1.3 26.78 8.63 49.46 13.68 73.83 4.96 23.9 10.33 40.96 41.06 47.11 2.66-2.41 3.16 3.9 1.81-3.98z" style="fill:#46474c"/><path d="M620.24 854.7c6.93-19.61 38.24-38.01 67.06-42.38 18.16-2.75 33.57 0 48.42 5.21 17.39 6.1 22.14 12.61 33.89 20.5 2.54 2.07.31-.41 3.06 3.13 1.53 1.97.7 1.03 1.91 3.16 4.41 4.57 15.79 18.37 16.1 27.88 10.76 10.23 8.2 45 4.16 59.3-9.85 34.89-35.07 59.75-70.61 68.05-29.61 6.92-39.78.31-60.12-3.99-4.67-1.7-6.49-.96-10.4-4.22-6.56-7.92-30.63-13.32-45.39-55.37-8.09-23.05-4.2-62.19 8.38-77.84 2.44-3.04.91-1.4 3.55-3.42zm-.61 117.01c4.47 4.01 7.86 8.98 13.7 13.16 16.94 12.14 29.56 20.25 54.62 23.2 15.91 1.88 33.41.5 47.55-4.55 22.09-7.89 24.56-13.75 33.5-18.51 24.88-20.84 46.82-67.45 30.17-112.81-13.6-37.05-46.6-62.08-85.01-66.86-69.52-8.65-124.11 48.36-116.64 113.37 3.88 33.82 16.52 41.48 22.11 52.99z" style="fill:#270a08"/><path d="M592.28 708.66c-7.72 5.94-2.67-6.28-21.01 18.5-2.21 2.99-4.31 5-4.29 9.71 16.2-.73 47.17-8.36 60.82-3.2 18.85 7.12 14.4 30.67 33.37 36.34l-.62-11.12c.09-2.44.07-1.86.52-2.92 4.35 2.86 3.53 1.47 4.65 8.16 2.13 4 1.16 7.05 4.55 9.91 3.77 3.18 8.94 3.01 14.29.28 3.15-7.11-1.28-11.63 1.6-17.12 5.54 5.54 2.55 9.57 5.9 14.06 6.51-11.15-3.39-24.21-8.68-31.19-5.66-7.46-13.51-16.15-20.18-22.68-9.58-9.38-10.69-13.34-30.14-12.17-13.18.79-28 3.51-40.78 3.43z" class="fil0"/><path d="M653.71 991.33c17.68-.18 5.98-4.81 5.29-9.91 5.11-.56 4.9 1.01 9.46 3.59l7.43-4c-.12-.15-.55-.95-.67-.7s-.61-.67-.77-.85c-5.45-5.98-2.86-1.23-4.68-6.33 7.22 1.51 2.81 2.4 10.93 3.31l5.45-7.52c-1.58-3.11-3.94-1.76-6.03-8.01 6.83.71 4.77 1.83 9.46 2.64l4.34-8.22-7.9-4.12c-29.9.14-62.16-26.45-68.18-58.83-4.52-24.28 1.39-25.55 2.42-37.69-2.64 2.03-1.1.39-3.55 3.42-12.58 15.65-16.47 54.79-8.38 77.84 14.76 42.05 38.82 47.45 45.39 55.37z" class="fil3"/><path d="M382.74 517.5c-.39-6.86 1.35-11.47 5.36-14.51 1.46 2.09 1.73.38 1.13 3.69l1.67 11.18-8.15-.36zm-6.47-2.83c-18.22-3.73-20.87-28.22-10.09-41.53-6.38 11.28 11.43 21.2 16.59 26.61l-6.5 14.92zm-32.9-46.25 1.64-6.76 18.45 4.02c-1.02 2.7.07 2.03-2.09 3.01-4.64 12.7-8.66 19.25-4.75 35.52-11.12-5-19.68-22.89-13.25-35.79zm48-13.56-1.75 12.29c-5.65-.16-12.13-1.22-15.94-4.38 5.07-5.42 9.73-5.8 17.69-7.91zm-52.26-70.29 2.75 14.6c6.49 6.9 2.87 12.14 11.05 17.86-.91-12.16-8.56-18.12-8.99-35.57 14.46 9.02 21.62 32.39 23.33 54.19-8.73-3.4-9.28-9-14.73-15.52-5.85-6.99-10.23-7.23-13.94-13.67-2.11-.93-.04.21-2.97-1.92-34.97-25.41-25.02-13-48.45-26.23l-.9 3.3c-6.48-.57-6.31-2.63-14.62-.56 3.58 2.76 9.69 3.13 15 4.51 11.76 3.07 26.59 10.82 36.13 17.08 15.2 9.99 24.19 22.63 34.99 35.98-2.77 2.63-9.11 7.47-12.47 9.57-6.71-5.75-58.99-47.12-74.24-34.52-6.48 8.63 22.47 24.99 29.19 26.91l5.07-1.22c-9.85-5.88-25.93-12.16-29.62-22.85 18.29.58 39.78 15.52 53.27 25.66 4.3 3.23 11.14 6.93 12.22 13.22-5.11 2.25-13.65-.03-20.33.12l-4.77.89 16.16 2.93 5.76.72c-.01 5.15-2.71 15.11-3.27 23.15l4.66-1.51 2.29 14.86c1.45 5.87 4.91 9.01 10.6 12.24 2.86 1.62 5.07 2.31 8 3.88 4.49 2.41 4.55 1.86 5.84 5.28 18.3-1.32 10.68 10.72 13.05 19.07 2.32 8.16.52 2.42 3.16 5.42l-1.18-19.98c15.39-4.16 16.3 1.04 23.81 6.45-.8-11.12-4.46-6.8-8.62-12.93l-3.91-4.32 4.29-2.23c.31-.15.73-.31 1.02-.45 2.17-1.08.09 1.07 3.4-1.96-2.05-2.68-12.46-9.66-16.44-12.8-4.78-3.76-11.4-8.77-14.64-13.76 1.64-4.29.14-1.85 3.26-4.89 3.01-4.45 2.13-2.42 4.42-4.84 1.26-.57 19.72 3.53 16.93-10.85-1.44-7.46.87-3.33-3.31-5.05-.86-2.16-.55-1.58-1.52-4.71-19.24 4.91-19.39 16.66-37.61 8.63-.33-.15-.82-.45-1.09-.58-.27-.13-.87-.14-1.06-.65-.19-.52-.72-.43-1.05-.69 11.88-19.88 43.89-23.7 42.49-7.55.55-.38 4.71 3.3 2.41-6.66-1.05-4.55-.91-.95-3.61-5.6l-3.47-.33c1.8-8.38 2.01-23.52.86-32.62-1.03-8.14-2.31-7.73-4.64-9.22l.43 9.94c3.34 5.99 2.56 23.12.91 29.34l-14.49-.52c2.11-3.68-.85-14.76-2.42-21.09-.02-6.6-5.91-16.81-9.09-21.99-4.7-7.65-7.12-14.88-17.72-14.81-2.01 3.61-2.51 3.74-1.57 8.8z" style="fill:#340202"/><path d="M158.61 448.77c7.53 2.91 10.01 11.44 26.74 20.43 78.56 42.22 111.3 17.51 136.85 37.22 1.75 1.35 1.98 1.76 4.01 3.34l9.47 6.59c1.39.96 1.59.9 2.83 2.02l2.73 3.14 24.88-3.57c-1.29-3.41-1.35-2.87-5.84-5.28-2.94-1.57-5.14-2.26-8-3.88-5.69-3.23-9.15-6.37-10.6-12.24l-5.96-7.16c-.18-.24-.47-.71-.76-1.02-56.52 5.68-108.86-7.72-141.05-52.52-16.64 1.76-23.45 7.75-35.28 12.91z" class="fil1"/><path d="M334.72 483.21c.56-8.04 3.26-18 3.27-23.15l-5.76-.72c-1.2 5.44 3.24 2.57-5.95 4.38-1.24.24-7.43.17-9.03.12-5.88-.16-11.9-.56-17.78-.88-31.71-1.73-53.2-8.55-76.73-26.71-3.77-2.91-5.74-6.13-8.63-9.06-18.72-18.92-35.61-41.43-49.98-63.53l-3.23-3.62c-.16-.62-.68-.6-1.06-.84 5.18 19.29 15.02 35.51 23.67 51.34 16.93 30.96 47.81 58.58 83.44 67.22 9.56 2.32 21.63 4.33 31.35 5.21 10.35.94 29.04-1.12 36.42.23z" class="fil19"/><path d="M418.06 477.54c7.26-27.83 3.05-68.26 28.93-104.85 4.11-5.81 3.52-7.13 8.4-11.86-8.87 1.69-10.78 8.17-15.6 13.45l-12.47 13.87-7.47-4.43c-3.37-1.68-3.76-1.78-5.29-6.19-5.14-14.81-14.26-53.14-17.67-58.03-1.56 16.6 2.01 46.25 5.81 62.14 1.26 5.25 4.81 12.64 5.39 16.61 1.51 10.3-12.74 37.3-11 66.52l-.12 3.45c-.1 1.94-1.67-1.08-.02 2.29l21.12 7.04z" class="fil12"/><path d="M476.7 691.49c31.6 21.32 21.49 10.36 41.93 20.67-3.89 7.52-22.92 26.87-32.56 28.02l-1.02-19.12-6.01.34c-6.97 8.55-6.04 33.05-3.88 46.72 4.65-2.01 13.11-8.44 16.2-10.96l.83 5.43c13.96-7.61 14.48-17 21.72-20.92l-1.41 11.43c8.83-5.01 12.65-14.57 17.39-24.22 5.53 4.08-.05 2.66 5.99 5.76 1.25-4.35 5.53-17.32 8.61-20.29 4.42 4.1.64 3.95 5.73 7.71 2.95-5.48 4.52-13.2 5.52-20.6-40.23 6.56-42.3-5.75-74.71-18.86l-4.34 8.89z" class="fil20"/><path d="M672.53 514.08c-8.61-8.85-6.59-21.31-3.24-34.15 2.21-8.5 7.6-27.77 17.56-24.02 12.6 4.74 7.81 57.85-14.31 58.17zm-14.33-10.61c-.2 5.52 1.22 9.07 2.98 12.02 51.75 27.76 64.16-32.04 52.74-61.28-14.27-36.54-51.8-3.86-55.73 49.26z" class="fil15"/><path d="M357.95 749.14c-2.26 2.02 1.07 2.92-4.94.03-7-3.37-2.58-3.65-14.81-7.47l-.46-2.99c-13.8 1.91-42.56-.63-54.24-6.05-16.64-7.72-28.41-14.29-50.36-11.77.34 7.42-4.29 6.51 3.03 8.55 9.08 2.54 26.49 4.92 36.4 12.13-3.98 3.59-2.36 1.13-6.29 3.05 7.81 5.17 31.68 7.29 42.03 11.81l-8.86 4.43c13.13 6.04 30.91-.9 43.28 2.63.56 5.75.26 1-4.16 5.71l27.83-1.64c.18-5-4.41-15.09-8.45-18.42z" class="fil20"/><path d="M485.3 273.16c-.03 10.3 4.15 19.71 3.39 30.45-12.78.77-18.69-6.42-36.85-2.52 1.3 8.58 11.63 9.01 14.1 18.59-7.04 3.76-20.11.89-26.06 5.84 5.57 6.55 14 6.67 15.53 15.02 2.9 3.41 2.86 3.46 6.57 6.14 14.56-7.45 20.74-13.35 39.72-19.38 3.29-7.28-2.58-6.85 7.42-12.25-6.17-24.54-13.3-30.5-21.09-48.23-3.42 3.55-3.45-4.98-2.72 6.33z" style="fill:#947a8a"/><path d="m686.01 951.22 7.9 4.12-4.34 8.22c-4.69-.81-2.63-1.93-9.46-2.64 2.09 6.24 4.45 4.9 6.03 8.01l-5.45 7.52c-8.13-.91-3.72-1.8-10.93-3.31 1.82 5.1-.77.35 4.68 6.33.17.19.65 1.1.77.85.12-.25.56.54.67.7l-7.43 4c-4.57-2.58-4.35-4.15-9.46-3.59.69 5.1 12.39 9.74-5.29 9.91 3.9 3.27 5.72 2.52 10.4 4.22 4.73-7.27 6.42-2.83 14.95-2.98-4.26-10.12 4.7 7.12-2.16-2.75-1.6-2.3-3.52-2.03.24-4.6 4.49-3.07 7.94-1.13 13.74-1.35-1.34-4.19-.01-1.05-2.7-3.77-.05-.05-2.21-1.34-3.02-2.07 15.53-14.26 6.01-.67 15.2-7.63-3.99-3.87-4.18-1.18-4.88-3.7-.14-.49-.63-.46-.71-.64l3.28-8 10.17.77c-1.23-2.95-1-2.75-3.12-4.74l-3.61-1.41c4.17-15.25 3.01-3.78 11.19-7.38-2.36-5.43-2.23-1.93-6.82-5.93l3.38-13.93c1.16.06 3.55.51 3.84.49l3.87-1.3c-6.68-7.75-7.29.88-5.07-14.79 5.4.65 4.2 2.33 7.86-.23l-7.07-5.39 2.2-9.56c4.39-1.62 4.74 2.45 9.16.36-1.85-4.41-.1-1.09-2.96-3.71-.37-.34-1.99-1.58-2.56-2.06l4.37-17.04 8.91 4.89c-.37-5.58-2.09-5.04-5.34-8.68l8.44-8.37c3.72 3.32 3.39 4.94 8.53 5.18-1.05-6.43.38-.57-2.05-4.68l-1.88-2.82c-.1-.55-.47-.63-.85-1.31l8.06-4.89c2.91 2.02 1.78 1.89 4.24 3.91 2.63 2.16 1.18 1.8 4.85 2.82-.46-5.33-1.39-5.56-4.1-8.38l11.41-3.44c1.58 3.12 2.25 4.5 4.24 6.84 5.87-6.83-9.06-9.48 7.26-8.99-1.21-2.13-.38-1.19-1.91-3.16-2.75-3.54-.52-1.06-3.06-3.13-8.92 6.76-6.91-1.25-17.24-2.12 2.61 5.78 2.71 2.01 4.75 7.19-17.47 3.9-9.16-1.35-18.52-1.8.18 4.3 1.07 3.58 4.49 6.12-13.8 9.28-6.43 4.28-18.52 2.27 1.1 7.5.74 1.34 5.41 7.09-2.75 3.24-6.39 6.46-9.03 9.47-2.84-1.74-5.66-3.75-9.2-2.09 1.52 4.42 2.08 3.27 7.47 5.24l-6.87 16.3-5.46-1.78c-.24 0-.81.16-1.01.17-.21.02-.86.65-1.01.32-.15-.34-.72.2-1.36 1.01l7.64 4.11-3.04 12.52c-4.23-1.57-4.78-2.95-8.44-1.01 2.19 4.64 2.57 2.79 7.88 5.95l-1.41 9.75c-5.04-.65-5.07-3.24-9.06-.95 1.7 3.95 3.24 3.69 7.83 6.24l-3.07 14.39c-5.6-1.12-2.85-2.55-9.22-2.6l5.58 6.88-2.03 10.86-9.18-3.64-.99 3.27z" style="fill:#4a0405"/><path d="M654.33 325.12c2.94 2.98 8 5.58 12.2 4.99l1.37-1.83c.12-.22.46-.69.6-.96 2.77-5.41 10.69-34.81 19.07-50.49l28.84-47.4c-15.02 7.82-27.82 25.83-41.44 39.19-5.1 5-33.26 40.11-35.48 46.08 5.04 1.17 15.03 5.58 18.21 9.35-1.66 1.55 3.54 2.25-3.36 1.07z" style="fill:#292e34"/><path d="M716.87 338.74c-.25-12.88 17.51-23.99 18.65-35.9-9.19 1.58-18.96 8.12-25.64 12.47-11.09 7.22-11.08 10.11-17.76 22.03 2.6 2.51 6.93 2.92 10.03 4.48.25 7.26-.59 4.35-3.62 9.8 4.96 4.09 4.27 1.93 9.06 7.11 10.49 11.36 12.51 18.04 18.51 25.25l10.61-3.85c-3.24-5.02-5.71-5.72-7.84-10.79 5.71-2.6 11.28-5.76 15.38-9.87-1.05-1.02-.71-.95-2.81-2.13-3.68-2.06-14.36-2.98-15-4.59-.21-.53-.78-.4-1.13-.66 2.79-4.54 8.01-5.23 12.49-8.84 2.77-2.24 1.6-1.29 2.74-2.97-7.54-4.44-15.25-1.66-23.68-1.55z" class="fil24"/><path d="M287.15 378.31c23.42 13.23 13.47.82 48.45 26.23 2.93 2.13.86.99 2.97 1.92l4.11-.56-.84-6.72-2.75-14.6c-.22.6-.94 1.81-1.02 4.3 0 .01.43 5.09.43 5.11-31.7-10.7-48.93-54.8-57.07-84.68 2.31-2.1-.98-.96 3.27-.82-2.62-6.39-8.75-10.5-14.78-13.88l11.21 63.95c1.53 6.6 5.72 15.52 6.01 19.76z" class="fil19"/><path d="M373.32 475.59c-3.13 3.04-1.62.6-3.26 4.89 3.24 5 9.86 10 14.64 13.76 3.99 3.14 14.39 10.12 16.44 12.8-3.31 3.02-1.23.88-3.4 1.96-.29.14-.71.3-1.02.45l-4.29 2.23 3.91 4.32 42.86 3.46c-1.46-5.85-9.73-13.16-13.48-17.62-2.06-2.46-4.47-6.62-5.9-8.94-2.8-4.53-5.35-6.69-.76-9.8-5.6-2.74-14.72-4.65-21.71-7.42-11.56-4.57-12.78-2.08-24.03-.1z" class="fil12"/><path d="M551.19 499.28c-33.38 3.58-45.29 3.54-64.93-16.65-35.7-36.68 26.06-99.75 61-66.89 20.64 19.42 11.9 55.7 14.01 67.9 3.57 13.73 13.78-49.72-7.98-69.49-8.75-7.95-15.75-15.33-33.91-13.57-49.85 4.81-70.4 84.06-9.62 102.93 6.75 2.09 14.35 3.1 21.51 2.81 3-.12 8.36-.63 11.24-1.14 7.22-1.28 7.39-2.65 8.69-5.89z" style="fill:#1a0d0a"/><path d="m413.19 356.81 6.13 24.61 9.56 1.19c2.72-7.31 9.49-14.19 14.44-20.18-2.63-1.47-24.64-4.45-3.21-18.89 2.99-2.02 5.35-2.8 8.13-4.72-5.27-5.39-13.82-8.55-14.39-16.23 6.05-5.6 15.36-4.98 23.86-5.5-4.67-4.9-13.01-8.42-12.11-19.58l-5.03 8.32c-2.17 2.97-3.04 3.05-5.64 5.97-23.92 26.86-16.83 39.32-21.74 45.01z" style="fill:#6b5a6b"/><path d="M529.74 455.35c-4.5-6.86-2.95-16.79 7.4-16.06 3.35 7.12.42 14.93-7.4 16.06zm17.7 5.94c1.16-8.84 2.21-36.37-11.92-31.19-8.52 3.13-14.35 19.53-16.45 30.89-8.24 44.52 22.63 44.09 28.37.29z" class="fil27"/><path d="M470.14 690.94c4.08-2.78 5.7-5.99 7.7-11.08-19.33-11.42-25.85-18.8-41.53-33.63-4.81-4.56-8.34-7.72-13.74-12.82-8.73-8.25-34.13-46.17-38.41-63.39l-5.44 1.9c2.78 17.13 27.57 53.31 39.29 67.52 19.68 23.86 29.52 33.17 52.13 51.5z" class="fil28"/><path d="m425.96 550.7-8.55 4.4-5.63-16.59 14.18 12.19zm-21.52 8.39-11.83 1.99c-1.59 1.83 1.39 1.52-5.26 2.37 1.3 2.87 1.35 9.9 3.96 15.46 2.09 4.45 4.52 8.53 6.53 12.78 4.01 8.5 9.89 18.88 16.51 22.64l-.02-3.62c-6.46-4.72-20.8-31.53-23.52-43.03 5.54-1.55 6.46-2.71 12.28-2.39 2.05-2.17-.32-.54 2.87-2.1l9.84-1.5c7.95 19.98 21.54 31.47 29.85 46.99 5.28 1.66 9.37 9.83 15.9 12.9-1.87-4.31-38.21-46.12-40.5-62.25 16.6-5.97 9.89-.75 30.26 12.09 16.2 9.28 13.86 10.51 26.2 20.28 11.76 9.31 34.87 27.11 50.16 30.76-2-3.78-.25-1.84-4.14-4.33l-13.61-7.19c-29.95-17.7-22.4-16.13-45.27-34.42-5.3-4.24-10.44-6.57-15.9-10.65-6.45-4.82-7.44-8.12-15.41-11.3-8.44-3.37-1.14 1.47-6.55-6.33-1.98-2.85-4.06-4.39-6.7-6.85-4.67-4.37-14.28-8.7-14.93-11.03-.17-.61-.59-.68-.94-.96 1.26 8.71 5.66 19.42 8.59 26.61l-8.4 3.1z" style="fill:#3b0101"/><path d="m479.04 721.4 6.01-.34 1.02 19.12c9.64-1.15 28.67-20.5 32.56-28.02-20.43-10.31-10.32.66-41.93-20.67-4.29 2-7.15 9.1-8.93 15.18l8.24-3.8c-2.59 11.13-4.45 9.57-5.14 24.43l5.71-7.9c5.22.63.42-.49 2.47 1.99z" style="fill:#f9f6ed"/><path d="M658.2 503.47c3.92-53.12 41.46-85.8 55.73-49.26 11.42 29.23-.99 89.04-52.74 61.28 2.98 12.51 30.04 20.48 50.72-1.9 11.93-12.91 14.4-44.09 6.92-62.83-18-45.1-69.41 2.15-62.63 56.93-3.01-6.21 1.35-3.6 2-4.22z" class="fil31"/><path d="M677.31 479.12c-3.23-6.6-.72-15.35 6.39-14.06l1.27 5.05c-.12 5.27-2.79 8.21-7.66 9.01zm-4.78 34.96c22.12-.31 26.91-53.43 14.31-58.17-9.96-3.75-15.35 15.52-17.56 24.02-3.34 12.85-5.37 25.3 3.24 34.15z" class="fil27"/><path d="M466.65 545.53c-3.24-6.08-5.88-5.57-10.64-10.61-9.39-9.96-5.47-3.12-11.68-9.51l5.71-.84-43.62-2.22 3.23 4.39c.92 1.15 1.93 2.23 2.83 3.24 10.35 11.52 11.03 9.45 18.6 16.72 7.64 7.32 12.46 3.74 35.56-1.17z" class="fil12"/><path d="m300.23 440.58 6.18 3.99c6.33 2.69 13.42 3.39 14.43 10.94 6.68-.14 15.23 2.13 20.33-.12-1.08-6.3-7.92-9.99-12.22-13.22-13.5-10.14-34.98-25.08-53.27-25.66 3.7 10.7 19.78 16.97 29.62 22.85l-5.07 1.22zM382.33 542.45l5.01 21c6.65-.85 3.67-.55 5.26-2.37-3.67-5.95-1.62-15.9-1.02-22.82 4.17 2.53 10.91 15.6 12.85 20.84l8.4-3.1c-2.93-7.19-7.34-17.9-8.59-26.61l.72-.46c-7.5-5.41-8.41-10.61-23.81-6.45l1.18 19.98z" class="fil19"/><path d="M485.3 273.16c-.73-11.31-.7-2.78 2.72-6.33 7.79 17.72 14.93 23.68 21.09 48.23 9.18-1.48 11.08.5 18.85 1.67-.75-8.96-2.99-9.86-8.31-16.57-6.69-8.44-23.69-32.98-35.98-36.26l1.62 9.26z" style="fill:#645465"/><path d="m389.84 450.15 1.67-.83c1.4-16.16-30.61-12.33-42.49 7.55.33.25.86.17 1.05.69.19.51.79.52 1.06.65.26.13.76.43 1.09.58 18.22 8.03 18.38-3.72 37.61-8.63z" style="fill:#d64747"/><path d="m341.85 399.17.84 6.72-4.11.56c3.7 6.43 8.09 6.67 13.94 13.67 5.45 6.52 6 12.12 14.73 15.52-1.72-21.8-8.88-45.17-23.33-54.19.43 17.45 8.08 23.42 8.99 35.57-8.18-5.72-4.56-10.96-11.05-17.86z" style="fill:#89282b"/><path d="M631.09 530.48c2.24 2.58 2.05-3.35 1.85 3.29-4.26 2.92-11.17 9.06-17.62 11.06l-10.08-12.17c-4.77-1.01-5.56-1.39-7.77-6.66 10-1.73 25.63-1.55 33.61 4.49zm-38.28-7.8c-.3 9.73 2.95 9.14 8.44 14.7 3.28 3.33 8.21 8.94 12.6 11.56 9.58-1.24 31.85-13.04 21.48-21.98-8.55-7.38-32.21-7.94-42.52-4.28z" style="fill:#1a0504"/><path d="m376.27 514.67 6.5-14.92c-5.16-5.41-22.97-15.33-16.59-26.61-10.78 13.31-8.13 37.8 10.09 41.53z" class="fil36"/><path d="M488.56 592.64c7.22 11.29 35.06 21.74 48.62 27.97 9.47 4.35 11.5 4.53 19.8.74-1.37-2.55.87-3.23-9.08-5.72-15.07-3.77-29.09-8.83-43.26-15.61-5.29-2.53-9.06-6.33-16.08-7.39z" class="fil28"/><path d="M343.37 468.42c-6.42 12.89 2.14 30.78 13.25 35.79-3.92-16.28.1-22.83 4.75-35.52-7 4.22-7.17 9.83-7.81 8.39-.11-.25-.58.51-.9.72-2.7-2.21-1.91-.82-4.14-5.14-1.19-2.3-1.45-3.54-2.22-5.2-1.14 1.91-.38.12-2.93.97z" class="fil36"/><path d="M745.19 430.53c9.15-4.23 24.12-34.92 25.03-43.26-3.47 2.04-19.31 23.43-25.6 30.8-3.52 4.13-2.43 6.69.57 12.46z" style="fill:#3e4146"/><path d="m377.13 568.25 4.85-2.66c-6.65-17.38-7.85-23.33-6.46-42.96l-13.25.53c3.48 8.84 5.01 10.94 7.59 21.43 1.84 7.46 4.63 15.67 7.27 23.67z" class="fil28"/><path d="m554.99 982.07-.34 14.84c15.39.45 26.03.6 25.52-16.41-3.08 2.2-6.65 3.43-12.02 3.8-2.33.16-5.02.29-7.44-.09-6.2-.97-2.3.43-5.72-2.13z" class="fil38"/><path d="m403.09 565.29 5.35-.68c5.8 9.84 10.96 16.44 17.62 24.01 4.21 4.78 14.85 18.24 19.59 20.06-8.31-15.52-21.9-27.01-29.85-46.99l-9.84 1.5c-3.2 1.56-.82-.07-2.87 2.1z" style="fill:#a62b31"/><path d="m144.5 950.86-.72 12.5c5.56-.65 15.56-1.15 19.07-4.23 3.75-3.29 4.32-11.23 2.38-15.31l-1.15 5.15c-6.66 3.41-12.14 3.83-19.58 1.89z" class="fil38"/><path d="M461.98 346.69c-3.7-2.68-3.66-2.73-6.57-6.14-6.94 3.92-15.86 8.27-19.34 13.94 11.61 6.51 15.19 1.96 20.74-3.06l5.17-4.74z" class="fil24"/><path d="M684.56 774.33c-5.35 2.73-10.52 2.9-14.29-.28-3.39-2.86-2.42-5.91-4.55-9.91 1.48 11.66-2.95 11.71-6.07 18.9 11.14 4.83 23.61 4.46 24.91-8.71z" style="fill:#322e32"/><path d="M705.77 566.52c14.63 5.13 14.1 4.28 23-5.05 3.38-3.54 2.67-1.45 4.53-7.35l-23.23-.83 10.55 2.52c-1.83 1.89-3.21 2.97-4.94 4.33-4.41 3.49-3.29.3-4.28 6.01l-5.64.37z" class="fil38"/><path d="m605.25 532.65 10.08 12.17c6.45-2 13.36-8.14 17.62-11.06.2-6.64.39-.7-1.85-3.29-2.16 2.07 2.61 1.14-5.31 1.38-1.89.06-5.34-.21-7.49-.24-4.55-.06-10.05-.66-13.04 1.03z" style="fill:#a05c5a"/><path d="m392.61 561.07 11.83-1.99c-1.94-5.24-8.68-18.3-12.85-20.84-.6 6.93-2.65 16.88 1.02 22.82z" style="fill:#da3e41"/><path d="M605.25 532.65c2.99-1.69 8.49-1.09 13.04-1.03 2.15.03 5.6.3 7.49.24 7.93-.25 3.15.69 5.31-1.38-7.98-6.05-23.61-6.22-33.61-4.49 2.21 5.27 2.99 5.66 7.77 6.66z" style="fill:#d8a09c"/><path d="M578.74 582.3c2.35 2.18-4.09 1.62 4.09 1.67l14.46-3.45c14.11-2.71 9.17 2.1 18.04 3 .08-8.69-7.98-9.97-17.12-7.93-5.76 1.28-15.64 2.52-19.48 6.7z" class="fil44"/><path d="M367.49 412.56c1.58 6.33 4.53 17.41 2.42 21.09l14.49.52c1.65-6.22 2.43-23.35-.91-29.34-.35 8.64 1.67 18.63-.6 26.95-6.93.4-5.17-2.35-7.46-8-1.8-4.46-3.97-8.61-7.94-11.22z" class="fil36"/><path d="M343.37 468.42c2.55-.84 1.79.94 2.93-.97.77 1.66 1.03 2.89 2.22 5.2 2.23 4.32 1.44 2.93 4.14 5.14.32-.21.79-.97.9-.72.64 1.44.81-4.16 7.81-8.39 2.16-.98 1.06-.3 2.09-3.01l-18.45-4.02-1.64 6.76z" style="fill:#c94748"/><path d="m337.73 738.71.46 2.99c12.23 3.81 7.82 4.1 14.81 7.47 6.01 2.89 2.68 1.99 4.94-.03l-4.48-12.28-15.73 1.85z" style="fill:#eae7e5"/><path d="M529.74 455.35c7.82-1.13 10.75-8.94 7.4-16.06-10.35-.73-11.89 9.2-7.4 16.06z" class="fil15"/><path d="M391.36 454.85c-7.96 2.11-12.61 2.49-17.69 7.91 3.81 3.16 10.29 4.21 15.94 4.38l1.75-12.29z" style="fill:#cd5353"/><path d="M602.88 847.93c-6.65-6.5-7.11 3.47-17.58-9.86-1.59-2.03-.96-1.24-2.43-2.63-.39.76-2.49 1.75-.4 6.84 2.95 7.18 14.14 10.38 20.41 5.64z" class="fil31"/><path d="M677.31 479.12c4.87-.8 7.54-3.74 7.66-9.01l-1.27-5.05c-7.11-1.29-9.62 7.46-6.39 14.06z" class="fil15"/><path d="m382.74 517.5 8.15.36-1.67-11.18c.61-3.31.33-1.6-1.13-3.69-4.01 3.04-5.75 7.65-5.36 14.51z" style="fill:#712b2d"/><path d="M581.2 872.95c8.38-1.34.48-.91 17.82-9.68-1.51-1.47 3.18-3.16-5.37-1.89-1.78.27-11.98 3.83-12.45 11.57z" style="fill:#231413"/><path d="m417.4 555.1 8.56-4.4-14.18-12.19z" style="fill:#b84749"/><path d="M787.38 830.33c8.16-2.87.61-2.3 14.83-6.27 6.69-1.86 2.7-.43 4.91-2.7-6.61-3.98-18.01.78-19.74 8.97zM792.95 837.6c3.01 2.72 12.6 3.9 17.36 4.61-.99-4.58-.18-5.02-6.14-6.2-4.62-.92-7.91-.93-11.23 1.59z" class="fil44"/><path d="m738.43 406.36 2.33 7.63c4.01-1.97 5.79-4.98 7.66-8.58-4.85-1.38-3.87-1.66-9.73-2.37l-.26 3.31z" style="fill:#927986"/></g></g></svg>