<svg xmlns="http://www.w3.org/2000/svg" xml:space="preserve" width="16" height="15.999" style="shape-rendering:geometricPrecision;text-rendering:geometricPrecision;image-rendering:optimizeQuality;fill-rule:evenodd;clip-rule:evenodd" viewBox="0 0 0.46 0.46"><path d="M.22.34s.01.01.01.02S.22.39.2.39C.19.39.19.39.18.38L.14.34.07.41s.01.01.01.02S.07.46.05.46C.04.46.04.46.03.45L-.01.41S-.02.4-.02.39-.01.36.01.36c.01 0 .01 0 .02.01L.1.3.06.26S.05.25.05.24.06.21.08.21C.09.21.09.21.1.22l.11.11zM.24.32.13.21l.22-.22.09.02.02.09-.22.22z" style="fill:#ffda07;fill-rule:nonzero"/></svg>