<svg xmlns="http://www.w3.org/2000/svg" xml:space="preserve" width="16.477" height="16" style="shape-rendering:geometricPrecision;text-rendering:geometricPrecision;image-rendering:optimizeQuality;fill-rule:evenodd;clip-rule:evenodd" viewBox="0 0 0.48 0.47"><path d="m.12.26.09.09-.04.04.04.04-.04.04L.11.41.04.48 0 .44.07.37.01.31.05.27l.04.04.04-.04zM.02 0h.09l.3.3.04-.04.04.04-.06.06.07.07-.04.04L.39.4.33.46.29.42.33.38l-.3-.3v-.09zm.37 0h.09v.09l-.1.1L.29.1l.1-.1z" style="fill:#ffda07;fill-rule:nonzero"/></svg>