<svg xmlns="http://www.w3.org/2000/svg" xml:space="preserve" width="753.369" height="208.984" style="shape-rendering:geometricPrecision;text-rendering:geometricPrecision;image-rendering:optimizeQuality;fill-rule:evenodd;clip-rule:evenodd" viewBox="0 0 6773.33 1878.91"><path d="M3550.03 1437.53c267 105.46 430.21 145.8 489.67 120.99 101.98-19.69 165.63-21.26 191.78-7.19 82.94 29.7 136.77 17.93 161.85-33.39 133.85 21.7 227.69 23.46 283.5 4.91 42.9-21.36 86.06-28 129.52-19.89 132.95 27.84 231.97 18.27 297.83-28.46 20.38-13.29 66.2-16.41 137.68-10.19 148.25-2.51 232.55-40.22 252.9-113.06 4.04-48.32-40.73-76.94-132.13-87.16-75.63-20.24-90.31-32.78-42.91-38.17 191.9-10.85 339.63-27.27 442.59-50.34 60.71-13.42 93.97-61.43 101.95-145.23 87.54 32.89 168.47 53.78 242.83 62.67 59.71 18.36 129.01 3.78 207.35-44.81 68.6 3.53 118.89-5.6 151.04-24.6 8.42 2.46 17.75-1.25 21.07-9.42 4.14-7.96 1.56-17.89-6.15-22.88-20.23-12.31-24.47-29.12-14.68-50.09 11.76-27.72 38.64-38.18 82.69-29.01 89.81 12.49 158.24 4.07 204.43-25.51 37.46-24.77 23.76-56.26-42.83-94.95-39.74-20.78-85.37-27.7-135.77-21.33-22.17 10.02-48.04 10.72-78.09 3.76-6.81-11.16-25-21.06-55.38-29.93-51.89 114.96-164.47 111.42-335.8-11.01-134.89-71.47-267.37-79-397.45-22.61-107.86-4.01-209.18 25.96-302.44 91.26-30.39 28.68-68.97 16.52-116.03-35.7-137.84-105.33-286.01-115.6-444.87-32.8-73.49 44.51-88.96 91.28-48.42 140.7 27.21 35.43 17.56 52.78-29.79 51.76-228.06-25.36-368.41 9.69-420.29 102.68-15.28 30.32-44.7 40.08-88.25 29.18-117.87-48.15-218.22-74.72-299.75-81.11-68.98.92-108.41-11.5-118.91-38.39-15.5-116.33-115.98-183.23-300.6-200.48-256.75-99.73-432.71-130.95-529.32-95.04-76.36 19.87-130.27 22.44-161.2 6.08-137.23-148.21-313.71-193.32-527.53-135.74-57.77 25.27-102.74 28.64-135.98 10.68-140.61-83.2-265.72-72.09-374.21 32.72-136.42-59.97-354.59-81.55-655.15-65.79-99.98-31.02-190.24-48.23-271.64-51.84-198.98-21.45-360.23-68.54-483.16-140.18-86.71-26.24-165.16-39.98-235.09-42.09-37.71-18.34-79.92-30.67-127.48-37.23-9.99-6.58-24.14-5.21-31.56 4.54-8.27 9.5-7.74 23.38 1.51 32.49 191.19 132.82 421.13 230.2 690.07 291.32 102.16 111.38 338.65 205.19 707.52 281.76 44.25 36.75 145.38 76.35 304.13 116.31 134.15 52.01 130.21 65.51-10.15 41.02-10.99 40.75 22.18 71.52 99.75 91.43 67.16 39.77 116.04 51.28 146.24 32.61 53.28 18.33 105.26 31.67 155.12 39.82 21.5 23.67 54.93 47.19 101.69 69.1 153.77 63.22 251.29 80.71 293.62 51.83 57.14-19.95 131.45-20.26 223.15-1.7 85.02 25.72 138.08 22.9 159.17-8.5 18.02-24.07-14.66-34.54-96.71-32.83-55.78-47.44-50.04-57.68 16.12-30.11 201.99 42.49 341.8 59.49 418.07 52.46 189.64 9.55 288.94 30.32 295.65 60.67-29.42-12.25-48.57-3.19-57.44 27.21-6.63 38.39 25.8 71.66 96.68 98.79z" style="fill:#b5d6dd"/><path d="M3957.69 976.6c81.53 6.39 181.88 32.95 299.75 81.11 43.55 10.9 72.96 1.15 88.25-29.18 51.88-92.99 192.23-128.04 420.29-102.68 47.35 1.02 57-16.32 29.79-51.76-40.54-49.42-25.07-96.19 48.42-140.7 158.86-82.8 307.03-72.53 444.87 32.8 47.06 52.22 85.64 64.39 116.03 35.7 93.26-65.3 194.58-95.27 302.44-91.26 130.09-56.39 262.56-48.85 397.45 22.61 171.32 122.43 283.91 125.98 335.8 11.01-7.6-2.22-16.87-4.93-26.43-6.8-4.48-15.96-21.2-30.91-50.37-44.02-63.12-72.49-160.09-98.07-290.94-76.71-22.52 8.08-32.87-.45-32.11-24.96 4.64-113.19-82.74-209.26-262.17-288.22-131.04-50.18-280.31-15.9-375.5 87.32-7.24 15.31-14.73 15.86-22.15 3.63-43.42-74.06-115.87-120.89-217.59-139.61-157.38-32.2-279.17-29.29-364.21 10.92-20.05 21.63-53.52 20.11-98.18-5.77-98.72-41.64-189.56-22.36-271.69 58.1-35.02 38.34-39.39 84.7-14.48 140.54-20.5-5.07-43.35 1.07-68.34 17.6-16.9-4.94-31.53-1.88-43.93 9.18-27.89 20.24-21.07 53.38 19.85 98.33 25.45 47.76 78.27 83.32 158.48 106.74 12.02 9.02 11.15 15.17-3.72 19.07-24.42 2.04-38.24 11.74-42.59 29.71-78.27-23.76-163.1.02-256.65 72.56-33.98-15.4-70.91-20.71-111.17-17.78-26.56-3.17-42.56-14.28-46.08-33.62-15.6-37.55-73.12-57.09-173.98-59.98-46.01 19.56-104.38-.23-173.99-59.96 4.85-19.67 6.98-36.44 6.95-52.05 6.89-39.21-49.5-109.73-167.76-212.97-8.63-36.44-34.25-74.15-75.83-113.78-58.23-60.99-144.44-110.89-258.27-147.8-89.55-35.32-150.63-45.83-183.46-30.67-16.98 14.28-40.17 12.1-69.78-5.73-49.02-29.89-126.79-55.34-235.26-76.03-168.48-9.8-290.61 28.75-367.72 117.08-22.81-22.24-55.28-27.13-95.72-14.19-31.83-10.22-59.27-7.24-80.74 6.65-10.97-25.18-32.24-43.31-64.67-54.62-67.96-30.84-150.25-28.3-246.87 7.63-52.94 5.6-80.71 44.21-83.55 116.68 4.91 27.11-9.2 44.05-41.5 51.11-86.16 3.25-137.35 18.53-154.42 45.62-5.11 26.92-27.35 49.73-66.48 67.64-28.81-11.18-59.84-14.73-94.42-9.26-63.22 6.28-117.01-10.35-161.95-50.96-57.75-62.67-132.17-102.75-222.19-120.79-103.84-30.32-190.99-1.72-263.5 83.4 8.61 14.43-1.31 17.04-29.41 9.73-113.43-63.36-202.55-71.96-269.86-26.57-41.02 11.85-56.62 33.86-46.42 67.98 122.93 71.64 284.18 118.73 483.16 140.18 81.41 3.61 171.67 20.83 271.64 51.84 300.55-15.75 518.73 5.82 655.15 65.79 108.49-104.81 233.61-115.92 374.21-32.72 33.23 17.96 78.21 14.59 135.98-10.68 213.83-57.58 390.31-12.47 527.53 135.74 30.93 16.36 84.84 13.79 161.2-6.08 96.62-35.91 272.57-4.69 529.32 95.04 184.62 17.26 285.1 84.16 300.6 200.48 10.49 26.89 49.93 39.31 118.91 38.39z" style="fill:#f7f0e6"/><path d="M5987.91 1830.63c.73-24.53-38.97-29.72-118.65-17.26-63.06-3.73-122.26-1.81-177.3 7.78-62.72 4.59-65.44 13.89-10.06 28.22 20.61 7.86 45.33 14.16 73.93 19.74 73.64 11.44 131.02 12.62 169.95 4.75 48.95-1.28 69.58-15.42 62.12-43.24z" style="fill:#9bc7d5"/></svg>