<?xml version="1.0" encoding="UTF-8"?>
<!DOCTYPE svg PUBLIC "-//W3C//DTD SVG 1.1//EN" "http://www.w3.org/Graphics/SVG/1.1/DTD/svg11.dtd">
<!-- Creator: CorelDRAW -->
<svg xmlns="http://www.w3.org/2000/svg" xml:space="preserve" width="4.3595mm" height="4.2333mm" version="1.1" style="shape-rendering:geometricPrecision; text-rendering:geometricPrecision; image-rendering:optimizeQuality; fill-rule:evenodd; clip-rule:evenodd"
viewBox="0 0 0.48 0.47"
 xmlns:xlink="http://www.w3.org/1999/xlink"
 xmlns:xodm="http://www.corel.com/coreldraw/odm/2003">
 <defs>
  <style type="text/css">
   <![CDATA[
    .fil0 {fill:#FFDA07;fill-rule:nonzero}
   ]]>
  </style>
 </defs>
 <g id="Capa_x0020_1">
  <metadata id="CorelCorpID_0Corel-Layer"/>
  <path class="fil0" d="M0.12 0.26l0.09 0.09 -0.04 0.04 0.04 0.04 -0.04 0.04 -0.06 -0.06 -0.07 0.07 -0.04 -0.04 0.07 -0.07 -0.06 -0.06 0.04 -0.04 0.04 0.04 0.04 -0.04 0 0zm-0.1 -0.26l0.09 0 0.3 0.3 0.04 -0.04 0.04 0.04 -0.06 0.06 0.07 0.07 -0.04 0.04 -0.07 -0.07 -0.06 0.06 -0.04 -0.04 0.04 -0.04 -0.3 -0.3 -0 -0.09zm0.37 0l0.09 0 0 0.09 -0.1 0.1 -0.09 -0.09 0.1 -0.1z"/>
 </g>
</svg>
