<?xml version="1.0" encoding="UTF-8"?>
<!DOCTYPE svg PUBLIC "-//W3C//DTD SVG 1.1//EN" "http://www.w3.org/Graphics/SVG/1.1/DTD/svg11.dtd">
<!-- Creator: CorelDRAW -->
<svg xmlns="http://www.w3.org/2000/svg" xml:space="preserve" width="274.357mm" height="244.928mm" version="1.1" style="shape-rendering:geometricPrecision; text-rendering:geometricPrecision; image-rendering:optimizeQuality; fill-rule:evenodd; clip-rule:evenodd"
viewBox="0 0 7246.11 6468.85"
 xmlns:xlink="http://www.w3.org/1999/xlink"
 xmlns:xodm="http://www.corel.com/coreldraw/odm/2003">
 <defs>
  <style type="text/css">
   <![CDATA[
    .fil0 {fill:#F7F0E6}
    .fil1 {fill:#B2D7DE}
    .fil2 {fill:#A7D0DC}
   ]]>
  </style>
 </defs>
 <g id="Capa_x0020_1">
  <metadata id="CorelCorpID_0Corel-Layer"/>
  <g id="_1529546067776">
   <g>
    <path class="fil0" d="M645.86 3355.9c30.77,-123.04 -34.16,-249.52 -152.09,-295.68 -75.26,-233.99 -239.88,-350.45 -493.77,-350.89l0 -616.31c92.54,8.62 191.95,52.14 298.97,129.87 184.58,61.5 321.29,131.54 405,215.31 22.22,32.49 61.55,47.83 99.15,37.6 37.61,-10.27 63.22,-41.05 66.66,-80.32 49.55,-196.53 34.16,-336.67 -46.16,-423.83 -32.49,-47.83 -87.15,-73.49 -145.26,-68.33 -49.55,-71.82 -102.54,-111.09 -157.2,-119.65 -35.88,-164.03 -189.7,-264.86 -459.71,-304.18 -20.75,-1.5 -41.31,-0.95 -61.45,1.51l0 -1481.01c309.97,32.73 506.15,172.47 589.48,418.26 13.67,44.44 42.71,59.82 92.26,42.71 319.57,-95.71 557.14,-6.83 714.34,266.58 8.56,44.44 56.38,71.82 141.87,85.48 365.67,179.42 473.33,449.44 326.4,815.11 -44.44,119.65 -109.38,167.48 -198.25,141.87 -8.55,27.33 -27.33,56.38 -54.66,90.55 102.49,-18.78 184.53,-20.5 246.08,-5.11 107.65,30.77 100.82,143.53 -17.11,336.67 -23.94,100.82 -126.48,150.37 -311.02,150.37 105.94,111.1 82.04,223.86 -70.1,333.23 58.1,-18.78 119.65,-25.61 182.86,-22.22 30.77,-5.11 61.55,12 70.1,42.72 8.5,29.05 -5.16,61.55 -34.21,73.49 42.72,-1.67 83.76,17.1 121.37,59.82 -13.67,-76.88 18.78,-112.76 99.1,-105.93 99.1,-155.53 225.58,-280.29 375.95,-372.56 148.7,-70.05 312.74,-22.22 490.48,145.26 35.89,-61.54 100.82,-90.6 196.53,-90.6 193.09,-1.67 386.17,107.7 577.59,329.84 54.71,117.93 121.32,193.08 201.64,227.3 128.2,75.16 174.31,217.03 138.43,423.78 -59.77,83.76 -73.49,158.97 -40.99,223.91 97.42,143.54 66.65,304.18 -95.71,483.6 -54.66,152.09 -146.98,211.91 -271.68,176.03 -42.77,58.1 -107.7,95.71 -196.53,111.1 -15.38,1.67 -27.38,13.66 -30.77,30.72 -1.72,15.39 5.11,30.77 18.78,39.33 64.93,6.83 119.65,51.27 136.7,114.49 13.72,27.33 37.6,46.16 66.66,54.71 29.05,8.5 59.83,3.39 85.48,-12 134.98,-99.1 324.68,-71.77 428.89,59.82 39.32,41 80.32,51.27 123.09,30.77 73.44,-61.54 150.37,-104.26 235.8,-129.87 519.53,-68.38 743.39,30.72 668.18,297.35 348.62,-20.5 461.44,76.88 338.4,292.19 198.2,-20.5 365.67,-18.78 502.38,3.44 413.55,88.87 415.27,170.87 6.84,247.8 -317.85,78.6 -647.64,80.32 -989.42,6.84 88.83,-136.7 -34.21,-186.25 -365.72,-146.98 -83.77,25.66 -158.92,3.44 -223.86,-68.33 -206.8,-223.91 -480.21,-278.57 -821.99,-164.09 -189.7,73.49 -287.13,42.72 -292.24,-92.27 -13.67,-158.92 -109.37,-254.63 -288.79,-288.79 -46.16,-8.55 -92.26,0 -135.03,27.33 -88.82,61.5 -170.87,23.94 -246.08,-111.09 -68.33,-112.77 -199.92,-155.48 -389.61,-129.87 -126.48,22.22 -201.64,-22.22 -225.58,-131.59 -11.94,-162.37 124.76,-244.36 408.44,-244.36 73.49,35.89 107.65,27.33 100.82,-25.66 93.99,-256.3 -88.88,-504.1 -545.15,-745.07 -242.68,-71.76 -463.1,5.11 -659.63,230.69 -107.65,114.48 -111.1,203.36 -10.28,266.58 123.04,169.2 116.2,220.46 -22.22,150.42 -172.58,-17.11 -266.57,-59.82 -283.68,-128.2 -44.44,-52.94 -117.88,-71.77 -181.14,-42.72 -63.22,27.33 -99.1,93.99 -88.88,162.37 -1.67,51.27 -30.72,97.38 -76.88,123.04 -44.44,23.94 -99.1,22.22 -143.54,-3.44 -116.2,-6.84 -182.86,-52.94 -201.64,-138.38 -93.99,-59.82 -99.15,-153.81 -13.72,-283.68 73.49,-160.65 251.24,-220.47 531.48,-177.75 -5.11,-42.72 -20.5,-76.88 -44.44,-99.1z"/>
    <path class="fil1" d="M-0 4256.73c39.19,-7.37 75.62,-19.97 109.27,-37.84 13.67,-17.11 15.39,-39.33 5.16,-58.1 -10.27,-18.83 -30.77,-30.77 -51.27,-29.05 -21.19,-6.26 -42.25,-11.3 -63.17,-15.15l0 -1407.25c253.89,0.44 418.51,116.9 493.77,350.89 117.93,46.16 182.86,172.64 152.09,295.68 23.94,22.22 39.33,56.38 44.44,99.1 -280.24,-42.72 -457.99,17.1 -531.48,177.75 -85.43,129.87 -80.27,223.86 13.72,283.68 18.78,85.43 85.43,131.54 201.64,138.38 44.44,25.66 99.1,27.38 143.54,3.44 46.16,-25.66 75.21,-71.77 76.88,-123.04 -10.22,-68.38 25.66,-135.03 88.88,-162.37 63.27,-29.05 136.7,-10.22 181.14,42.72 17.11,68.38 111.09,111.09 283.68,128.2 138.43,70.05 145.26,18.78 22.22,-150.42 -100.82,-63.22 -97.38,-152.09 10.28,-266.58 196.53,-225.58 416.94,-302.46 659.63,-230.69 456.27,240.97 639.13,488.76 545.15,745.07 6.83,52.99 -27.33,61.55 -100.82,25.66 -283.68,0 -420.38,81.99 -408.44,244.36 23.94,109.37 99.1,153.81 225.58,131.59 189.7,-25.61 321.29,17.11 389.61,129.87 75.21,135.04 157.25,172.59 246.08,111.09 42.77,-27.33 88.87,-35.88 135.03,-27.33 179.42,34.16 275.13,129.87 288.79,288.79 5.11,134.98 102.54,165.76 292.24,92.27 341.78,-114.48 615.19,-59.82 821.99,164.09 64.93,71.77 140.09,93.99 223.86,68.33 331.51,-39.28 454.55,10.27 365.72,146.98 -135.03,176.03 -464.82,230.69 -992.91,165.75 -232.41,-34.16 -362.28,-27.33 -391.33,20.5 -181.14,126.48 -435.77,165.81 -767.28,121.37 -338.4,-25.66 -642.58,-61.54 -909.15,-105.98 -268.29,-66.66 -365.72,-129.87 -290.51,-194.81 68.38,-41 220.47,-49.55 451.16,-23.94 25.61,0 49.55,-11.95 63.22,-34.17 13.67,-22.22 15.38,-47.83 3.44,-71.77 -12,-22.22 -35.89,-35.88 -59.83,-37.6 -169.2,-13.67 -369.11,0 -601.53,39.33 -399.89,3.39 -654.52,-23.94 -763.89,-82.04 -70.1,0 -105.98,-17.11 -107.65,-51.27 -17.11,-49.55 32.44,-75.21 150.37,-78.6 6.83,-30.77 18.78,-54.71 32.44,-75.21 -68.33,49.55 -230.69,51.27 -481.88,8.56 -71.51,24.51 -138.11,45.8 -199.87,63.91l0 -824.12zm0 -2163.71l0 -612.02c20.14,-2.45 40.7,-3.01 61.45,-1.51 270.01,39.32 423.83,140.15 459.71,304.18 54.66,8.55 107.65,47.83 157.2,119.65 58.11,-5.16 112.77,20.5 145.26,68.33 80.32,87.15 95.71,227.3 46.16,423.83 -3.44,39.28 -29.05,70.05 -66.66,80.32 -37.6,10.23 -76.93,-5.11 -99.15,-37.6 -83.71,-83.77 -220.42,-153.81 -405,-215.31 -107.02,-77.73 -206.43,-121.25 -298.97,-129.87z"/>
   </g>
   <g>
    <path class="fil2" d="M6528.53 6320.98c-27.44,-33.79 -90.75,-44.32 -191.01,-31.66 -188.9,-24.29 -303.93,-51.73 -344.03,-84.42 -15.83,-60.16 -100.25,-82.32 -253.28,-65.45 -44.32,-93.92 -132.97,-159.34 -235.34,-175.18 -102.36,-15.82 -206.84,21.13 -277.54,97.11 -30.61,-2.13 -61.21,2.09 -90.76,12.66 -21.11,-35.88 -61.21,-59.1 -118.19,-69.67 -96.03,-56.98 -220.56,-26.38 -278.6,69.67 -33.77,-7.38 -71.76,-4.22 -112.92,8.44 -43.27,1.06 -83.37,24.29 -104.47,62.26 -20.05,39.04 -18.99,85.48 5.27,122.43 23.22,35.88 65.43,56.98 108.7,53.82 30.61,11.59 75.98,17.94 137.19,21.1 170.96,75.98 329.26,104.49 473.84,85.48 72.82,1.06 107.64,-28.51 103.42,-89.7 44.32,6.34 88.64,6.34 131.91,0 -2.11,33.79 20.05,56.98 66.48,70.7 311.32,93.92 635.3,78.11 973,-47.48 68.6,-10.56 70.71,-24.29 6.33,-40.1l0 0z"/>
    <path class="fil2" d="M6969.66 6304.11c-91.81,-15.85 -165.68,-6.35 -219.5,27.44 -47.49,46.42 -44.33,66.48 6.33,58.04 50.66,15.82 104.47,23.19 162.52,22.16 144.58,0 236.39,-16.91 275.44,-51.73 71.77,-22.16 68.58,-33.75 -8.44,-36.94 -70.71,-1.03 -142.47,-7.38 -216.34,-18.97l0 0z"/>
   </g>
  </g>
 </g>
</svg>
