<?xml version="1.0" encoding="UTF-8"?>
<!DOCTYPE svg PUBLIC "-//W3C//DTD SVG 1.1//EN" "http://www.w3.org/Graphics/SVG/1.1/DTD/svg11.dtd">
<!-- Creator: CorelDRAW -->
<svg xmlns="http://www.w3.org/2000/svg" xml:space="preserve" width="246.358mm" height="308.26mm" version="1.1" style="shape-rendering:geometricPrecision; text-rendering:geometricPrecision; image-rendering:optimizeQuality; fill-rule:evenodd; clip-rule:evenodd"
viewBox="0 0 34320.21 42943.94"
 xmlns:xlink="http://www.w3.org/1999/xlink"
 xmlns:xodm="http://www.corel.com/coreldraw/odm/2003">
 <defs>
  <style type="text/css">
   <![CDATA[
    .fil0 {fill:#F7F0E6}
    .fil3 {fill:#ACD2DE}
    .fil1 {fill:#ADD2DC}
    .fil2 {fill:#A0CCD9}
   ]]>
  </style>
 </defs>
 <g id="Capa_x0020_1">
  <metadata id="CorelCorpID_0Corel-Layer"/>
  <g id="_1530489786432">
   <path class="fil0" d="M25769.59 39711.54c540.75,-576.37 1469.43,-761.88 2781.35,-530.27 1170.95,-187.57 2058.13,470.81 2660.08,1983.66 781.45,-112.8 1389.62,-5.43 1814.32,329.32 873.95,73.63 975.66,360.37 286.17,865.65 -95.09,81.93 -204.47,143.27 -322.55,203.09 -1352.3,-104.47 -2559.98,-317.68 -3611.26,-655.58 -1040.62,362.89 -2386.29,322.48 -4037.07,-121.27 -2860.53,-290.07 -4046.72,-624.99 -3575.98,-1007.83 1286.95,-641.79 2079.1,-662.99 2392.37,-52.34 522.86,-69.01 1051.84,-20.48 1550.64,148.25 -179.86,-148.24 -276.45,-362.44 -271.38,-594.24 13.82,-230.53 140.61,-441.13 333.3,-568.43l0 0z"/>
   <path class="fil1" d="M25340.64 41786.13c1650.77,443.75 2996.44,484.16 4037.07,121.27 1051.28,337.9 2258.96,551.11 3611.26,655.58 -684.86,326.99 -1772.94,349.82 -3274.48,75.72 -1246.59,362.35 -2427.75,404.84 -3522.95,112.77 -787.62,147.79 -1751.48,-76.23 -2874.28,-668.75 -1095.77,-238.04 -1835.79,-359.92 -2237.54,-367.96 -1299.68,-148.78 -2011.6,-328.34 -2153.17,-541.46 24.56,-595.86 971.62,-733.27 2838.12,-395 -470.74,382.84 715.44,717.76 3575.98,1007.83l0 0z"/>
   <path class="fil2" d="M16938.13 37821c119.07,442.12 -449.28,718.03 -1704.99,827.76 -1892.19,-92.06 -3241.78,-312.54 -4066.75,-664.09 -951.53,-141.19 -1667.14,-249.48 -2162.21,-336.88 -833.13,-102.5 -1075.39,-252.74 -725.22,-459.7 190.2,-163.58 477.77,-220.28 863.18,-170.01 407.22,-277.56 783.06,-273.81 1119.64,0.53 436.5,166.74 742.66,157.91 928.71,-33.2 1481.19,-625.53 2637.23,-475.05 3466.7,459.71 1360.02,61 2117.44,185.7 2280.95,375.89l0 0z"/>
   <path class="fil3" d="M18045.01 33276.9c-2030.19,-376.18 -3143.21,-922.14 -3322.05,-1634.57 -1094.17,-247.03 -1891.52,-298.11 -2394.79,-136.22 -847.06,128.28 -3042.08,-124.98 -6602.66,-762.34 -1465.35,484.79 -3008.24,445.38 -4633.52,-92.29 -851.01,-204.1 -1204.21,-436.82 -1060.98,-689.07 158.98,-240.73 888.15,-210.71 2196.7,91.94 762.06,-205.89 1429.79,-284.88 1992,-221.45 473.43,262.68 1587.92,495.26 3342.51,706.3 1781.77,-43.65 3130.38,-20.48 4044.87,78.08 -80.77,-202.39 -49.62,-429.87 71.1,-605.69 129.18,-174.07 336.18,-281.09 556.41,-259.98 1183.16,-257.06 2101.58,-283.05 2746.76,-79.45 786.98,210.57 1307.71,203.8 1563.91,-28.53 475.26,-408.82 905.64,-664.53 1290.96,-766.57 1401.97,-227.45 2212.53,103.77 2433.25,984.93 50.01,376.32 787.54,461.69 2203.75,254.8 318.94,-131.83 753.35,-207.45 1301.8,-218.34 333.72,139.58 430.3,49.16 300.01,-278.44 -433.9,-739.43 -1243.37,-1178.19 -2437.27,-1317.32 -291.83,29.14 -329.69,-111.81 -116.55,-405.59 193.34,-1704.1 734.12,-2737.4 1631.15,-3098.84 1452.52,-970.76 2853.93,-1144.44 4215.95,-536.76 609.73,250.93 745.63,597.57 418,1032.47 1229.68,-418.93 1862.44,-298.47 1925.77,357.75 31.11,229.71 -18.96,462.59 -143.18,709.47 188.6,-2.54 333.2,41.03 433.88,130.45 137.05,-522.4 429.38,-757.36 875.57,-696.64 328.61,67.04 476.86,-112.95 462.07,-536.65 -108.86,-449.08 -441.03,-749.71 -989.43,-891.38 -450.24,-88.49 -505.45,-232.52 -160.93,-458.53 972.08,-482.18 1431.61,-1207.42 1372.92,-2194.5 -207.96,-1004.15 -659.2,-1442.28 -1345.11,-1312.36 -597.43,288.57 -890.82,174.14 -861.15,-349.18 467.71,-974.55 365.02,-1610.92 -316.75,-1910.37 -1124.36,-583.78 -2246.63,-773.15 -3349.61,-564.56 -373.6,238.65 -682.3,210.94 -931.68,-101.86 -702.17,-742.22 -837.56,-1599.27 -404.61,-2579.96 -44.93,-608.12 213.2,-1207.6 699.77,-1578.63 488.13,-379.75 1125.98,-491.08 1708.62,-289.79 525.42,-794 1459.77,-1417.64 2802.93,-1870.4 834.58,246.05 1186.72,128.85 1062.05,-332.05 207.54,-312.81 165.12,-732.37 -119.54,-997.56 -277.48,-255.15 -696.57,-266.51 -997.6,-32.84 -247.9,135.35 -352.69,18.4 -323.02,-352.59 -240.67,-463.6 -261.61,-852.57 -71.44,-1168.45 637.39,-971.65 1817.53,-1515.8 3541.9,-1641.22 610.17,74.14 1164.26,222.48 1662.48,444l0 24796.96c-626.88,63.68 -1350.48,8.46 -2162.49,-181.1 -387.97,218.34 -1010.99,296.48 -1861.91,244.7 -857.12,135.51 -1698.36,-22.02 -2515.04,-470.81 -147.21,377.07 -439.58,612.28 -878.59,713.88 883.13,173.96 1450.95,408.46 1701.87,712.53 2346.35,208.32 3340.37,616.77 2990.79,1226.89 -262.27,571.95 -1578.82,823.23 -3948.2,745.38 -4479.64,-405.59 -6063.48,-873.34 -4742.8,-1401.69 -874.95,-270.96 -1567.98,-303.63 -2080.62,-89.52 -957.79,198.16 -1882.87,160.35 -2778.21,-96.44z"/>
   <path class="fil3" d="M18382.29 26088.43c-625.53,-871.71 -1056.27,-1324.27 -1321.56,-1344.04 -578.63,-21.48 -1076.76,-91.65 -1475.9,-215.99 67.37,-229.82 205.34,-402.61 403.55,-510.91 -403.14,0.47 -594.66,-132.04 -583.42,-398.58 -586.18,-130.55 -981.39,-379.43 -1176.56,-745.28 -404.13,-653.77 -377.57,-1312.17 72.65,-1985.19 1032.85,137.5 1587.08,-6.38 1672.3,-439.5 -314.37,-198.78 -522.29,-441.39 -622.43,-736.88 -209.58,-386.45 -33.02,-776.38 532.28,-1187.36 262,-571.73 878.06,-660.11 1848.93,-273.79 421.62,199.94 671.66,154.4 729.47,-121.97 57.67,-428.95 255.61,-788.04 575.99,-1080.94 432.92,-371.46 1016.1,-528.53 1580.84,-428.84 566.24,91.22 1051.78,436.7 1350.21,928.25 176.33,219.26 353.12,385 530.47,496.98 714.48,367.86 621.45,996.47 -268.94,1878.62 -452.4,735.53 -548.01,1480.17 -279.74,2244.22 307.15,493.1 186.51,668.94 -366.48,553.54 -989.98,75.98 -1687.64,373.91 -2092.97,893.79 -590.89,657.21 -808.13,1380.37 -651.81,2169.5 49.57,125.24 14.81,271.42 -106.31,348.47 -110.92,70.1 -260.12,52.52 -350.59,-44.11l0 0z"/>
   <path class="fil0" d="M18839.19 25784.07c-156.33,-789.12 60.93,-1512.29 651.81,-2169.5 405.32,-519.89 1102.99,-817.81 2092.97,-893.79 552.98,115.4 673.65,-60.45 366.48,-553.55 -268.28,-764.03 -172.66,-1508.68 279.74,-2244.21 890.39,-882.14 983.42,-1510.75 268.94,-1878.62 -177.33,-111.98 -354.14,-277.72 -530.47,-496.98 -298.44,-491.54 -783.97,-837.03 -1350.21,-928.25 -564.74,-99.7 -1147.92,57.38 -1580.85,428.84 -320.39,292.9 -518.3,651.99 -575.98,1080.94 -57.83,276.36 -307.85,321.9 -729.46,121.97 -970.88,-386.32 -1586.94,-297.93 -1848.94,273.79 -565.29,410.98 -741.86,800.9 -532.28,1187.36 100.15,295.49 308.06,538.1 622.41,736.87 -85.22,433.13 -639.44,577.01 -1672.28,439.51 -1860.2,-830.17 -2942.57,-1549.8 -3247.37,-2158.98 -257.49,-672.72 -140.76,-1180.66 344.31,-1542.93 -408.44,-376.71 -613.79,-887.92 -626.62,-1526.2 -72.98,-1312 494.27,-2242.16 1698.98,-2772.98 388.16,-979.83 884.97,-1662.67 1474.66,-2060.05 539.31,-415.56 1344.85,-613.79 2406.38,-587.71 1151.47,-280.43 1980.77,45.08 2497.13,978.42 269.15,47.53 551.89,70.64 849.32,60.27 255.43,-26.54 506.98,71.72 690.95,247.49 182.47,184.52 271.36,442.21 244.25,697.18 249.41,8.22 480.4,120.66 636.8,300.56 104.27,-133.91 220.78,-184.98 352.66,-170.71 259.65,0.99 326.07,-121.53 186.05,-343.41 -475.82,-451.21 -674.08,-799.85 -579.02,-1033.82 -377.14,-451.85 -589.21,-874.58 -644.9,-1269.66 -178.29,-766.21 88.02,-1462.68 807.69,-2088.39 59.79,-338.64 272.41,-426.6 636.31,-254.91 17.37,-149.22 118.09,-212.11 277.51,-201.75 518.26,109.28 563.25,-44.11 134.99,-460.14 -1064.51,-1379.3 -779.19,-2843.24 845.64,-4384.05 493.2,-459.27 1176.56,-777.76 2058.7,-953.44 753.36,-359.73 1480.63,-267.14 2171.57,284.95 314.31,198.77 516.69,270.32 595.43,230.36 848.47,-1202.92 2096.08,-1824.86 3744.32,-1874.3 945.35,-47.24 1822.66,305.26 2463.39,910.92l0 6160.98c-498.22,-221.52 -1052.31,-369.86 -1662.48,-444 -1724.37,125.42 -2904.51,669.57 -3541.9,1641.22 -190.17,315.89 -169.23,704.86 71.44,1168.45 -29.67,371 75.12,487.95 323.02,352.59 301.04,-233.68 720.12,-222.31 997.6,32.84 284.67,265.19 327.09,684.75 119.54,997.56 124.67,460.9 -227.47,578.1 -1062.05,332.05 -1343.16,452.76 -2277.5,1076.4 -2802.93,1870.4 -582.64,-201.29 -1220.49,-89.95 -1708.62,289.79 -486.57,371.03 -744.7,970.51 -699.77,1578.63 -432.95,980.69 -297.55,1837.74 404.61,2579.96 249.38,312.81 558.08,340.52 931.68,101.86 1102.98,-208.59 2225.25,-19.22 3349.61,564.56 681.77,299.45 784.46,935.82 316.75,1910.37 -29.67,523.32 263.71,637.75 861.15,349.18 685.91,-129.92 1137.15,308.21 1345.11,1312.36 58.69,987.08 -400.84,1712.32 -1372.92,2194.5 -344.51,226 -289.31,370.04 160.93,458.53 548.4,141.66 880.57,442.3 989.43,891.38 14.79,423.7 -133.46,603.69 -462.07,536.65 -446.18,-60.73 -738.51,174.24 -875.57,696.64 -100.68,-89.42 -245.28,-132.99 -433.88,-130.45 124.22,-246.87 174.29,-479.76 143.18,-709.47 -63.33,-656.22 -696.09,-776.68 -1925.77,-357.75 327.63,-434.9 191.73,-781.55 -418,-1032.47 -1362.03,-607.67 -2763.43,-433.99 -4215.95,536.76 -897.02,361.44 -1437.81,1394.74 -1631.15,3098.84 -213.15,293.78 -175.28,434.73 116.55,405.59 1193.89,139.13 2003.37,577.89 2437.27,1317.32 130.3,327.6 33.71,418.02 -300.01,278.44 -548.45,10.89 -982.86,86.51 -1301.8,218.34 -1416.22,206.89 -2153.74,121.52 -2203.75,-254.8 -220.72,-881.15 -1031.29,-1212.38 -2433.25,-984.93 -385.32,102.04 -815.71,357.75 -1290.96,766.57 -256.21,232.33 -776.93,239.1 -1563.91,28.53 -645.17,-203.6 -1563.59,-177.61 -2746.76,79.45 -220.22,-21.11 -427.22,85.91 -556.41,259.98 -120.73,175.82 -151.88,403.3 -71.1,605.69 -914.49,-98.56 -2263.1,-121.73 -4044.87,-78.08 -1754.59,-211.04 -2869.07,-443.62 -3342.51,-706.3 -154.17,-90.11 -237.64,-176.48 -248.27,-268.05 -92.5,-338.71 255.69,-483.41 1044.24,-433.62 862.07,-63.01 1734.08,73.17 2636.16,393.75 270.79,-113.52 678.08,-86.46 1237.84,93.03 187.12,-146.07 464.42,-195.83 820.8,-132.92 -754.76,-393.01 -1068.55,-797.86 -934.19,-1204.24 -260.66,-959.86 -109.85,-1560.24 453.83,-1810.17 513.32,-420.16 1117.45,-797.22 1793.69,-1125.73 272.42,-274.55 646.55,-414.41 1039.45,-407.94 382.81,14 746.77,185.7 999.26,481.03 204.86,108.08 330.04,210.58 391.38,320.12 391.94,-799.81 1239.39,-1286.48 2130.91,-1209.76 399.15,124.33 897.27,194.49 1475.91,215.99 265.29,19.77 696.02,472.35 1321.57,1344.04 90.45,96.63 239.64,114.21 350.59,44.11 121.12,-77.07 155.86,-223.23 106.29,-348.47z"/>
  </g>
 </g>
</svg>
