<?xml version="1.0" encoding="UTF-8"?>
<!DOCTYPE svg PUBLIC "-//W3C//DTD SVG 1.1//EN" "http://www.w3.org/Graphics/SVG/1.1/DTD/svg11.dtd">
<!-- Creator: CorelDRAW -->
<svg xmlns="http://www.w3.org/2000/svg" xml:space="preserve" width="200.836mm" height="42.8515mm" version="1.1" style="shape-rendering:geometricPrecision; text-rendering:geometricPrecision; image-rendering:optimizeQuality; fill-rule:evenodd; clip-rule:evenodd"
viewBox="0 0 12168.4 2596.32"
 xmlns:xlink="http://www.w3.org/1999/xlink"
 xmlns:xodm="http://www.corel.com/coreldraw/odm/2003">
 <defs>
  <style type="text/css">
   <![CDATA[
    .fil1 {fill:#F7F0E6}
    .fil0 {fill:#B5D6E0}
   ]]>
  </style>
 </defs>
 <g id="Capa_x0020_1">
  <metadata id="CorelCorpID_0Corel-Layer"/>
  <g id="_1823516704240">
   <path class="fil0" d="M7075.38 2185.89c-9.2,-120 120,-153.9 390.71,-107.7 550.72,-12.3 852.23,33.81 907.63,135.4 316.91,141.51 1138.34,21.5 2461.27,-353.81 298.41,-49.3 279.91,-141.6 -55.4,-280.01 476.82,-27.7 889.13,-116.9 1236.74,-264.6 350.71,-227.61 95.4,-270.71 -772.22,-123.01 -584.52,193.81 -996.74,276.91 -1230.64,243.01 15.4,-132.3 -21.5,-218.41 -110.71,-258.41 -332.31,-169.21 -655.32,-273.81 -969.13,-313.81 15.4,-33.9 21.5,-73.9 21.5,-116.91 -566.02,-153.8 -1169.04,61.5 -1507.45,538.42 -40,230.71 -249.21,298.41 -624.62,203.01 -544.52,-123.01 -1009.03,-21.5 -1390.54,304.61 -276.91,-40 -516.91,-3.1 -719.92,116.9 -446.12,126.11 -867.63,175.31 -1267.54,144.61 -178.5,-58.5 -347.71,-64.6 -507.71,-21.59 -587.61,43.1 -1113.64,-6.11 -1575.15,-147.61 -61.5,27.7 -126.1,36.9 -193.81,24.6 -510.71,-104.6 -883.02,-116.9 -1113.73,-33.89 -160,92.3 30.8,166.2 578.42,221.6 686.03,61.5 1325.94,98.41 1919.76,110.71 273.81,67.7 532.22,92.3 772.22,73.8 -46.2,135.4 181.51,209.21 689.12,224.61 1221.43,153.8 2270.56,110.8 3144.29,-123.01 24.6,3.01 46.1,-6.2 61.5,-24.61 12.3,-21.59 12.3,-46.2 3.1,-64.69 -12.3,-21.51 -33.89,-33.81 -58.5,-30.71 -55.4,21.5 -86.1,-3.1 -89.2,-76.91l0 0z"/>
   <path class="fil1" d="M6823.07 1487.47c375.41,95.4 584.61,27.7 624.62,-203.01 338.41,-476.91 941.43,-692.22 1507.45,-538.42 0,-33.89 -3.01,-73.89 -15.3,-116.9 -86.2,-400.01 -461.51,-667.62 -867.63,-624.62 -360.01,-6.11 -753.82,101.6 -1181.43,326.2 -110.71,-92.3 -264.6,-120 -458.41,-80 -255.31,-18.5 -529.12,116.9 -818.32,406.11 -138.5,-6.19 -276.91,18.41 -412.31,70.71 -76.9,-12.3 -156.9,15.4 -206.1,76.91 -49.2,64.6 -58.41,147.7 -27.7,221.51 30.8,70.8 101.5,120 178.5,126.2 -172.3,9.2 -307.71,95.31 -406.11,258.41 -132.3,243.02 -338.5,307.62 -618.41,200.01 -64.61,-61.6 -172.31,-95.4 -323.02,-98.5 -156.9,-3.1 -381.51,83.1 -676.91,255.4 -279.91,-61.59 -658.33,-73.89 -1135.24,-27.7 -193.81,-80 -347.61,-73.89 -467.62,21.5 -49.2,55.4 -101.5,98.51 -156.9,123.1 461.51,141.51 987.54,190.71 1575.15,147.61 160,-43.01 329.21,-36.9 507.71,21.59 399.92,30.71 821.43,-18.5 1267.54,-144.61 203.01,-120 443.01,-156.9 719.92,-116.9 381.51,-326.11 846.03,-427.62 1390.54,-304.61l0 0z"/>
  </g>
 </g>
</svg>
